<?xml version="1.0" encoding="utf-8"?>
<!-- Generator: Adobe Illustrator 27.9.0, SVG Export Plug-In . SVG Version: 6.00 Build 0)  -->
<svg version="1.1" xmlns="http://www.w3.org/2000/svg" xmlns:xlink="http://www.w3.org/1999/xlink" x="0px" y="0px"
	 viewBox="0 0 960 950" style="enable-background:new 0 0 960 950;" xml:space="preserve">
<style type="text/css">
	.st0{fill-rule:evenodd;clip-rule:evenodd;fill:url(#SVGID_1_);stroke:#CCCCCC;stroke-width:3;stroke-miterlimit:10;}
	.st1{fill-rule:evenodd;clip-rule:evenodd;fill:#E6E6E6;}
	.st2{fill-rule:evenodd;clip-rule:evenodd;fill:url(#SVGID_00000160159079001659310290000008659284014012686724_);}
	.st3{fill:none;}
	.st4{fill:#FFFFFF;}
	.st5{fill-rule:evenodd;clip-rule:evenodd;fill:url(#SVGID_00000065779581330010179520000003845202764021350576_);}
</style>
<g id="Calque_2">
	<linearGradient id="SVGID_1_" gradientUnits="userSpaceOnUse" x1="705.333" y1="865.2883" x2="254.667" y2="84.7117">
		<stop  offset="0" style="stop-color:#656565"/>
		<stop  offset="0.2363" style="stop-color:#1B1B1B"/>
		<stop  offset="0.376" style="stop-color:#1B1B1B"/>
		<stop  offset="0.7421" style="stop-color:#545454"/>
		<stop  offset="0.9831" style="stop-color:#3E3E3E"/>
	</linearGradient>
	<circle class="st0" cx="480" cy="475" r="450.59"/>
</g>
<g id="Calque_4">
</g>
<g id="Calque_3">
	
		<rect x="540.11" y="415.64" transform="matrix(0.4195 -0.9078 0.9078 0.4195 -158.1688 885.1155)" class="st1" width="145.67" height="301.16"/>
	<rect x="254" y="250" class="st1" width="300" height="211"/>
</g>
<g id="Calque_1">
	<g>
		<g>
			
				<linearGradient id="SVGID_00000162329383028364983380000010739402283395327422_" gradientUnits="userSpaceOnUse" x1="143.5343" y1="399.3599" x2="579.1719" y2="399.3599">
				<stop  offset="0" style="stop-color:#D4145A"/>
				<stop  offset="0.4624" style="stop-color:#EA0000"/>
				<stop  offset="1" style="stop-color:#000000"/>
			</linearGradient>
			<path style="fill-rule:evenodd;clip-rule:evenodd;fill:url(#SVGID_00000162329383028364983380000010739402283395327422_);" d="
				M402.54,639.03c-25.44-6.34-49.83-18.43-72.39-34.37c-45.21-31.93-78.64-74.27-106.77-121.27
				c-27.64-46.17-48.03-95.6-65.92-146.18c-4.12-11.65-9.52-22.87-13.18-34.64c-2.37-7.63,1.03-14.45,8.05-18.61
				c34.85-20.67,69.71-41.33,104.69-61.77c39.92-23.33,83.32-36.69,128.73-43.91c34.24-5.44,68.53-10.54,102.81-15.73
				c6.94-1.05,13.9-2.06,20.88-2.74c9.7-0.95,16.74,3.78,20.04,12.37c5.25,13.7,9.43,27.8,13.96,41.77
				c11.82,36.52,21.75,73.55,27.92,111.45c3.29,20.24,5.1,40.72,7.81,62.98c-6.87-4.42-11.42-8.31-16.68-10.47
				c-5.48-2.25-11.62-3.78-17.53-3.98c-27.13-0.92-47.01,11.39-59.18,35.31c-8.98,17.65-16.88,35.85-24.97,53.94
				c-2.26,5.05-4.51,6.3-10.56,5.52c-29.86-3.8-55.15,5.93-74.7,28.9c-19.93,23.42-29.08,51.45-32.9,81.51
				c-0.17,1.37-0.65,2.71-1.46,5.94c28.03-32.1,54.63-63.47,97-72.09C426.29,555.06,414.48,596.83,402.54,639.03z M355.78,369.09
				c-45.77-12.45-99.32,28.98-97.21,74.81c25.47,0.98,50.47-0.13,70.38-19.05C344.83,409.74,351.88,390.12,355.78,369.09z
				 M409.4,342.08c35.34,35.47,85.53,35.28,119.62-2.91C487.32,302.82,451.08,307.16,409.4,342.08z"/>
			<g>
				<path class="st3" d="M402.54,639.03c-25.44-6.34-49.83-18.43-72.39-34.37c-45.21-31.93-78.64-74.27-106.77-121.27
					c-27.64-46.17-48.03-95.6-65.92-146.18c-4.12-11.65-9.52-22.87-13.18-34.64c-2.37-7.63,1.03-14.45,8.05-18.61
					c34.85-20.67,69.71-41.33,104.69-61.77c39.92-23.33,83.32-36.69,128.73-43.91c34.24-5.44,68.53-10.54,102.81-15.73
					c6.94-1.05,13.9-2.06,20.88-2.74c9.7-0.95,16.74,3.78,20.04,12.37c5.25,13.7,9.43,27.8,13.96,41.77
					c11.82,36.52,21.75,73.55,27.92,111.45c3.29,20.24,5.1,40.72,7.81,62.98c-6.87-4.42-11.42-8.31-16.68-10.47
					c-5.48-2.25-11.62-3.78-17.53-3.98c-27.13-0.92-47.01,11.39-59.18,35.31c-8.98,17.65-16.88,35.85-24.97,53.94
					c-2.26,5.05-4.51,6.3-10.56,5.52c-29.86-3.8-55.15,5.93-74.7,28.9c-19.93,23.42-29.08,51.45-32.9,81.51
					c-0.17,1.37-0.65,2.71-1.46,5.94c28.03-32.1,54.63-63.47,97-72.09C426.29,555.06,414.48,596.83,402.54,639.03z M355.78,369.09
					c-45.77-12.45-99.32,28.98-97.21,74.81c25.47,0.98,50.47-0.13,70.38-19.05C344.83,409.74,351.88,390.12,355.78,369.09z
					 M409.4,342.08c35.34,35.47,85.53,35.28,119.62-2.91C487.32,302.82,451.08,307.16,409.4,342.08z"/>
				<g>
					<g>
						<g>
							<path class="st4" d="M408.97,341.57c-0.05,0.16,0.13,0.25,0.41-0.02l0-0.43L408.97,341.57z"/>
							<path class="st4" d="M411.4,340.38c0.25-0.41,0.49-0.97,0.07-1.02c-0.15,0.54-0.32,0.5-0.46,1.11
								c-0.28,0.28-0.6,0.35-0.62,0.21c-0.05,0.15-0.52,0.33-0.55,0.62c0.56-0.13,1.06-0.53,1.45-1.12
								C411.44,340.15,411.39,340.31,411.4,340.38z"/>
							<path class="st4" d="M443.81,320.49l-0.24,0.06C443.64,320.54,443.72,320.51,443.81,320.49z"/>
							<path class="st4" d="M466.5,314.75c-0.18,0.02-0.25,0.06-0.25,0.09C466.41,314.81,466.54,314.78,466.5,314.75z"/>
							<path class="st4" d="M470.5,314.89c-0.09-0.01-0.16-0.01-0.23-0.02C470.36,314.9,470.45,314.91,470.5,314.89z"/>
							<path class="st4" d="M443.81,320.49l0.62-0.14C444.43,320.23,444.1,320.39,443.81,320.49z"/>
							<path class="st4" d="M415.04,336.47c-0.1,0.09-0.16,0.19-0.22,0.28l0.23-0.23C415.05,336.5,415.04,336.49,415.04,336.47z"/>
							<path class="st4" d="M434.62,325.31l-0.17,0.09c-0.03,0.06-0.05,0.13-0.07,0.19L434.62,325.31z"/>
							<path class="st4" d="M427.81,329.43c0.16-0.09,0.06-0.36,0.05-0.5c-0.02,0.15-0.11,0.27-0.23,0.38
								C427.66,329.35,427.71,329.39,427.81,329.43z"/>
							<path class="st4" d="M417.15,336.27l-0.15,0.17C417.04,336.39,417.1,336.32,417.15,336.27z"/>
							<path class="st4" d="M439.7,322.73c0.03,0.03,0.07,0.05,0.11,0.06C439.79,322.76,439.75,322.74,439.7,322.73z"/>
							<path class="st4" d="M415.4,349.37c0.02-0.01,0.02-0.03,0.03-0.04C415.38,349.32,415.35,349.33,415.4,349.37z"/>
							<path class="st4" d="M409.45,342.03l0.1,0.08c0.05-0.03,0.09-0.06,0.13-0.09L409.45,342.03z"/>
							<path class="st4" d="M477.74,315.48c-0.01,0-0.02,0-0.03-0.01C477.52,315.48,477.62,315.49,477.74,315.48z"/>
							<path class="st4" d="M521.23,345.42c0.74-0.32-0.71,1.06,0.34,0.5C521.41,345.92,522.05,344.91,521.23,345.42z"/>
							<path class="st4" d="M415.23,336.37l0.26-0.21C415.36,336.25,415.28,336.31,415.23,336.37z"/>
							<path class="st4" d="M521.57,345.93L521.57,345.93l0.11-0.06C521.63,345.89,521.6,345.91,521.57,345.93z"/>
							<path class="st4" d="M494.06,318.92c-0.02-0.06-0.07-0.11-0.12-0.17C493.93,318.78,493.96,318.83,494.06,318.92z"/>
							<path class="st4" d="M482.05,315.44l0.3,0.09C482.23,315.48,482.13,315.46,482.05,315.44z"/>
							<path class="st4" d="M500.24,321c0.15,0.09,0.18,0.15,0.41,0.21c-0.01-0.02-0.03-0.04-0.05-0.06
								C500.5,321.15,500.4,321.12,500.24,321z"/>
							<path class="st4" d="M506.33,324.02c-0.02-0.04-0.06-0.07-0.08-0.11c-0.06-0.03-0.13-0.06-0.2-0.09L506.33,324.02z"/>
							<path class="st4" d="M433.09,360.87c-0.1-0.14-0.14-0.26-0.17-0.37C432.92,360.72,431.98,360.31,433.09,360.87z"/>
							<path class="st4" d="M415.14,336.59c-0.01-0.08,0.01-0.14,0.09-0.22c-0.06,0.05-0.12,0.1-0.17,0.15
								C415.06,336.56,415.08,336.6,415.14,336.59z"/>
							<path class="st4" d="M501.41,319.09l0.99,0.49C502.13,319.43,501.77,319.25,501.41,319.09z"/>
							<path class="st4" d="M481.65,368.21l-0.25,0.07C481.5,368.27,481.59,368.25,481.65,368.21z"/>
							<path class="st4" d="M505.36,321.01c0.13,0.18,0.29,0.32,0.47,0.45c0.05,0,0.11,0.01,0.15-0.01L505.36,321.01z"/>
							<path class="st4" d="M432.92,360.49L432.92,360.49L432.92,360.49z"/>
							<path class="st4" d="M426.23,357.52c0.91,0.54,0.62-0.06,0.92-0.13c1.14,0.54,0.36,0.53,0.64,0.91
								c0.73,0.31,1.42,0.32,1.91,0.63c0.01,0.07,0.1,0.15-0.06,0.15c0.85,0.17,2.19,1.14,3.21,1.26c0.05,0.06,0.07,0.11,0.07,0.14
								c-0.05-0.24,0.01-0.42,0.1-0.52c0.42,0.21,0.87,0.19,0.92,0.49c-0.25-0.14-0.32-0.06-0.47-0.06l0.48,0.13
								c0.24,0.52-0.65-0.2-0.76,0.03c0.89,0.37,2.05,0.54,2.67,0.94c0,0.37-1.61-0.61-0.85,0.07l-0.98-0.59
								c0.55,0.85-0.61-0.34-0.14,0.53c1.33,0.72,1.61,0.55,2.93,1.26c0.38-0.03,0.01-0.3,0.39-0.33c2.08,0.54,1.22,1.43,2.85,1.61
								c0.46-0.06,0.76-0.4,1.71,0.22l-0.49,0.22c1.36,0.54,0.97-0.24,2.32,0.5c-0.3,0.06-1.12-0.25-0.93-0.13
								c0.84,0.61,0.73,0.02,1.45,0.26l0.04,0.37c1.48,0.49,3.21,0.66,4.87,1.08c-0.12,0.07-0.43,0.09-0.07,0.3
								c2.14,0.36,4.48,1.14,6.53,1.66l0.84-0.15c0.18,0.03,0.32,0.19,0.11,0.21c0.79,0.25,0.07-0.18,0.47-0.22
								c0.46,0.06,0.58,0.27,0.28,0.31c0.73,0,1.77-0.04,2.8,0.02c1.03,0.07,2.06,0.18,2.81,0.37l-0.3,0.07
								c1.17,0.19,1.37-0.52,2.44-0.17l-0.21,0.04c2.55,0.25,5.37-0.03,7.34,0.29c0.18-0.22,0.81-0.2,1.42-0.2
								c0.61-0.01,1.19-0.08,1.24-0.38c1.48,0.14,1.07,0.3,3.15,0.28c0.55-0.06,0.76-0.49,1.42-0.66l0.06,0.3l0.86-0.46l0.55,0.29
								l0.62-0.18c-0.25,0.02-0.56-0.05-0.53-0.15c0.96-0.26,2.42-0.26,2.48-0.09l2.25-0.74c-0.02,0.13-0.4,0.25-0.69,0.4
								c1.16-0.58,0.3,0.29,1.36-0.28c-0.17-0.03,0.04-0.2,0.05-0.27c0.6,0.03,1.87-0.31,2.79-0.63l-0.12,0.25
								c0.86-0.18,1.73-0.52,2.62-0.84c0.89-0.34,1.82-0.63,2.74-1c-0.69,0.16-0.66-0.24-0.14-0.48l0.33,0.22
								c0.28-0.32-0.6,0.1,0.02-0.4c0.69-0.23,0.59,0.17,0.23,0.42l0.79-0.43c0.08,0.07-0.09,0.19-0.1,0.33
								c0.27-0.32,1.56-0.25,1.92-0.77l0.08,0.07c1.81-0.78,2.57-1.27,4.03-1.93c-0.09-0.27,0.49-0.5,0.81-0.92
								c1.07-0.47,2.36-0.82,3.57-1.56c0.79-0.62,0.13-0.35,0.44-0.72c0.19,0.19,1.4-0.54,0.86-0.02c0.72-0.44,1.19-0.73,1.69-1.06
								c0.49-0.35,1-0.76,1.85-1.42c-0.25,0.04-0.5,0.14-0.43,0c0.3-0.25,0.8-0.39,0.82-0.26l-0.07,0.08c0.45-0.41,1-0.76,1.57-1.09
								c0.56-0.35,1.16-0.68,1.75-1c1.17-0.64,2.3-1.26,2.87-2.09l-0.07,0.09l1.37-1.46c0.74-0.54-0.3,0.49,0.32,0.19
								c0.71-0.82,1.35-1.37,1.97-1.88c0.62-0.5,1.22-0.97,1.78-1.66c0.78-0.16,1.63-1.04,2.51-1.95c0.88-0.92,1.78-1.9,2.57-2.43
								l-0.2-0.04c0.2-0.47,0.47-0.35,0.74-0.58c-0.13-0.06-0.47,0.27-0.34-0.01l0.48-0.56l0.6-0.67c0.57-0.61,1.15-1.23,1.72-1.84
								c-0.5-0.43-0.99-0.86-1.49-1.3l-0.73-0.64l-0.44-0.4c-0.57-0.54-1.15-1.09-1.73-1.63c-1.17-1.08-2.36-2.13-3.55-3.15
								c-1.16-0.97-1.24,0.22-2.51-1.26l0.63,0.05c-2.67-1.5-5.06-3.65-7.77-4.97c0.19,0.03,0.25-0.05,0.5,0.1
								c-0.41-0.54-1.98-1.24-2.09-1.08c-0.38-0.26,0-0.21-0.19-0.44c-0.46-0.47-1.52-0.56-1.69-0.92c-0.03-0.06,0.19,0.02,0.3,0.06
								c-0.42-0.1-1.66-0.97-1.46-0.54c-0.92-0.66-1.92-0.96-2.65-1.5c-0.66,0.01-1.65-1-2.01-0.69c0.14-0.18-0.26-0.49-0.79-0.76
								c-0.53-0.27-1.2-0.47-1.56-0.52c0.27-0.03-0.5-0.38-0.17-0.44c-0.75-0.33-1.46-0.56-1.42-0.28
								c-1.15-1.13-2.95-0.71-3.47-1.68c-1.16-0.35-2.31-0.58-3.41-0.87c-0.55-0.14-1.09-0.28-1.62-0.41
								c-0.54-0.12-1.07-0.23-1.6-0.34c0.2-0.42,2.32,0.59,2.36,0.14c-1.01-0.24-1.84-0.28-2.65-0.4c-0.81-0.1-1.59-0.29-2.58-0.53
								c-0.5-0.17,0.34-0.13,0.53-0.17c-1.03-0.13-2-0.34-2.94-0.55c-0.95-0.2-1.88-0.31-2.8-0.34c0.01-0.04,0.21-0.06,0.4-0.06
								c-0.36-0.04-0.82-0.19-0.81,0.01l0.36,0c0.52,0.39-1.5,0.39-1.58,0.55c0.68-0.52-1.77-0.32-0.72-0.97
								c-0.24,0.02-0.55,0.08-0.51,0.22c-0.35-0.07-0.45-0.16-0.08-0.28c-1.3-0.02-0.86,0.25-2.02,0.13
								c0.01-0.1,0.25-0.11,0.38-0.22c-0.6,0.12-1.21,0.32-2.19,0.19c0.06-0.06-0.05-0.14,0.25-0.13c-0.85-0.02-1.58,0.08-2.32,0.16
								c-0.74,0.11-1.5,0.2-2.43,0.13c0.54-0.44-0.63-0.13-0.75-0.5c0,0-0.25,0.03-0.5,0.06c-0.25,0.05-0.5,0.09-0.5,0.09l0.41,0.15
								c-0.88,0.06-1.62,0.39-2.38,0.32l0.64-0.2l-1.63,0.19l0.94,0.07c-0.86,0.26,0.14,0.46-1.03,0.45
								c0.23-0.07-0.86,0.1-1.34-0.06l0,0c-0.41,0.17-0.83,0.36-1.48,0.35c-0.18-0.1,0.07-0.43-0.04-0.49
								c-0.38,0.34-2.01,0.4-2.48,0.84c0.16-0.11,0.14-0.3,0.07-0.33l-0.3,0.32c-0.41-0.01-0.48-0.03-0.44-0.2
								c-1.2,0.18,0.47,0.39-0.98,0.46c0.11-0.04,0.05-0.07,0.27-0.15c-1.45,0.16-2.68,0.79-4.01,0.97
								c-0.48-0.27,1.11-0.36,0.59-0.56c-0.93,0.24-1.86,0.64-2.77,1.01c-0.92,0.38-1.84,0.69-2.72,0.98l0.34-0.08
								c-0.07,0.59-1.39,0.21-2.19,0.75c0.2-0.11,0.19-0.38,0.15-0.3c-1.24,0.32-2.39,1.04-4.11,1.91l0.17-0.21
								c-0.75,0.15-1.84,0.7-2.6,0.98c-0.16,0.22-0.59,0.39-0.25,0.46c-1.3,0.15-2.34,0.75-3.3,1.39c-0.97,0.64-1.92,1.22-3.03,1.48
								c0.23-0.13,0.49-0.41,0.31-0.31l-1.59,1.02c0.24,0.13,0.28,0,0.71-0.03c-0.14,0.24-0.55,0.58-0.96,0.81
								c0.66-0.54-0.19-0.32-0.57-0.26c0.09,0.03,0.02,0.16,0.08,0.21c-1.06,0.12,0.08,0.47-1.21,0.9v-0.14
								c-0.4,0.31-0.71,0.69-1.19,0.93c-0.33-0.11,0.39-0.38,0.31-0.59c-0.64,0.4-1.02,1.2-1.75,1.33c0.24-0.23,0.63-0.47,0.87-0.7
								c-0.8,0.12-0.84,0.23-1.34,0.47l0.05-0.02c0,0-0.29,0.14-0.59,0.27c-0.29,0.14-0.58,0.29-0.58,0.29l0.32-0.11
								c-0.43,1.11-1.56,1.16-2.38,2.24c0.8-1.04,0.04-0.32-0.05-0.63c-0.32,0.11-0.79,0.3-0.72,0.15c-0.38,0.53-0.95,0.4-1.45,1.18
								c-0.09-0.06-0.54,0.36-0.56,0.08c-0.61,0.51,0.25,0.03,0.26,0.17c-0.8,0.97-2.6,1.27-3.72,2.69
								c-1.1,1.04-1.13,1.47-2.15,2.43c-0.47,0.16,0.1-0.51,0.1-0.51c-0.7,0.33-1.12,0.72-1.62,1.24c0.06-0.16-0.1-0.12-0.34-0.07
								c-0.44,0.37-0.09,0.52-0.77,0.87c0.04-0.17,0.06-0.4,0.21-0.66c-0.48,0.49-0.89,1.04-1.39,1.54c-0.25-0.02,0.17-0.46,0.3-0.7
								c-0.58,0.54-1.5,1.39-1.52,1.75l0.45-0.24c-0.21,0.19-0.26-0.09-0.13-0.26c0.39-0.6,0.82-0.53,0.91-0.48l-0.35,0.36
								c0.76,0.13,1.52-1.3,2.33-1.89l-0.07,0.58l0.6-0.9c0.24-0.05,0.5,0.04,0.14,0.4c0.69-0.28,0.41-0.51,1.04-0.7
								c0.08-0.01,0.06,0.02,0.02,0.07l0.49-0.52c-0.06,0.15,0.27,0.17-0.11,0.37c1.15-0.55,1.45-1.45,2.01-1.48l-0.07,0.08
								c1.32-1.15-0.04-0.35,0.8-1.41l1.15,0.09l-0.04-0.35c0.15-0.09,0.46-0.28,0.48-0.14c0.43-0.55-0.17-0.04,0.04-0.43
								c0.87-0.26,1.89-1.47,2.33-1.18c0.13-0.37-0.78,0.32-0.11-0.34c0.51,0.28,0.83-0.69,1.63-0.91
								c-0.06,0.36-0.76,0.64,0.03,0.42c0.15-0.64,1.35-0.75,1.86-1.19c-0.17-0.32,1.12-0.93,2.03-1.59c0,0.14,1.91-0.91,2.86-1.33
								l0,0.07c-0.02-0.43,0.96-0.88,1.61-1.32c0.08,0.21,0,0.35-0.32,0.64l0.64-0.36c0.09-0.19,0.26-0.35,0.66-0.62l-0.03,0.33
								c0.84-0.49,1.57-1.23,2.78-1.62c-0.05-0.26-1.22-0.18-0.11-0.94c0.11,0.1,0.26,0.29-0.03,0.5c0.09-0.07,0.31-0.29,0.54-0.34
								l-0.37,0.45c0.56-0.17,0.18-0.31,0.6-0.5c0.08,0.18,0.37-0.03,0.38,0.14c-0.1,0.07-0.39,0.11-0.51,0.25
								c0.48-0.2,1.08-0.38,1.33-0.33c-0.09-0.08-0.12-0.24,0.21-0.43c0.88-0.43,0.41,0.07,0.96-0.07c0.16-0.22,0.78-0.35,0.67-0.62
								c0.26-0.12,0.37-0.01,0.5,0.01c0.4-0.33,2.13-1.01,1.49-1.06l-0.13,0.03c0.02-0.01,0.04-0.03,0.07-0.05c0,0,0,0,0,0l0,0
								c1.42-0.89,3.24-1.17,4.74-1.83l0.03,0.09c0.89-0.43,2.03-0.78,2.63-1.22c0.28-0.09,0.71-0.03,0.63,0.12
								c0.69-0.28,0.74-0.41,1.83-0.57c-0.67,0.38,0.29,0.07-0.7,0.34c0.96-0.19,1.21-0.11,2.13-0.66
								c-0.28,0.33,0.79,0.14,1.22-0.04l-0.7-0.02c0.49-0.16,0.94-0.24,1.39-0.33l-0.16,0.38c1.99-0.11,3.35-1.43,4.95-1.05
								c0.48-0.33-1.08,0.04-0.67-0.32c0.91-0.14,1.92,0.2,2.2,0.17c1.25,0.02,1.08-0.63,2.4-0.68c-0.18-0.09-0.37-0.41,0.59-0.61
								c0.92-0.03,1.16,0.41,0.6,0.55c-0.22,0.03-0.33,0-0.32-0.04c-0.29,0.06-0.67,0.14-0.3,0.25l0.11-0.13
								c0.46,0.09,1.71-0.02,1.43,0.2c0.67-0.16,0.28-0.22-0.23-0.24c1.17,0.09,1.82-0.16,3.02-0.05c-0.19-0.06-0.37-0.2-0.18-0.2
								c1.77,0.12,0.77-0.24,1.97-0.31c0.68,0.17-0.24,0.43,0.96,0.27c0.73,0.15,0.15,0.32-0.14,0.41c1.09-0.18,2.03,0.23,2.64,0.3
								l-0.58,0.07c0.34-0.04,0.62-0.03,0.91-0.02l-0.31-0.25c0.33,0.05,0.62,0.07,0.61,0.17c0.36-0.14-0.24-0.41,0.46-0.58
								c0.44,0.16,1.38,0.01,1.51,0.33c-1.4-0.24,0.13,0.33-1.07,0.26c0.23-0.02,0.51,0.01,0.84,0.09c0.05,0.04-0.05,0.06-0.15,0.07
								c1.31,0.41,0.65-0.29,2.05-0.15c-0.2,0.16,0.28,0.36,0.51,0.37c-0.56-0.09-0.23-0.34,0.3-0.39c0.87,0.28,0.98,0.05,1.45,0.14
								l-0.52-0.15c0.21-0.15,0.65-0.05,1.29-0.01c0.03,0.14-0.58,0.01-0.37,0.1c0.75-0.21,1.51,0.56,2.49,0.58
								c0.42,0.21-0.03,0.34,0.34,0.5c1.11,0.01,1.1,0.47,2.25,0.56c-0.26-0.32-0.33-0.28,0.5-0.29c0,0-0.46-0.09-0.93-0.16
								c-0.47-0.06-0.94-0.12-0.94-0.12l1.26-0.08c-0.56-0.13-1.21-0.11-1.54-0.22c0.61-0.07,0.54-0.02,0.31-0.27
								c0.69,0.5,1.57,0.13,2.38,0.61l-0.18,0.56c1.23,0.62,2.41,0.3,4.03,1.03l-0.51-0.28c0.3-0.15,1.04,0.31,1.62,0.4
								c-0.11,0.17,0.2,0.35,0.39,0.54c0.03-0.16,1.21,0.43,1.49,0.14l0.64,0.53c1.28,0.63,1.73,0.04,2.97,0.66
								c-0.46,0.03,0.05,0.41-0.84,0.18c0.42,0.19,0.78,0.39,0.84,0.27c0.19,0.22,1.26,0.28,1.57,0.62c0.21,0,0.36-0.16,0.82,0.06
								c0.03,0.06-0.04,0.09-0.04,0.09c0.04-0.09,0.79,0.21,0.47-0.17c1,1.17,3.57,1.72,4.4,2.78c0.9,0.43,1.98,0.97,2.78,1.41
								c-0.08,0.02-0.05,0.08-0.19-0.02c1,0.77,0.96-0.1,2.07,0.82c0.45,0.66-0.73-0.25-0.41,0.09c-0.17,0.66,1.51,0.83,2.12,1.66
								l-0.22-0.09c0.51,0.56,1.63,0.77,2.6,1.48c0,0-0.08,0.01-0.06,0.08c0.86,0.19,2.23,0.95,3.2,1.58
								c-0.44-0.01-0.5-0.2-0.48,0.14c0.44,0.28,0.12-0.43,1,0.13c0.19,0.31,0.72,0.85,0.64,1.13l-0.79-0.56
								c0.19,0.58,1.02,0.74,1.4,1.09l-0.15,0.09c1.24,0.83,1.48,0.56,2.72,1.57l-0.06-0.2c0.93,0.24,0.44,0.63,1.31,0.95
								l-0.04,0.47c0.52,0.27,1.82,0.97,2.66,1.6c-0.64-0.15-1.65-0.84-2.36-1.16c0.46,0.34,1.52,1.22,1.88,1.26
								c-0.2-0.12-0.49-0.23-0.62-0.43c0.72,0.21,1.57,0.72,2.39,1.42c-0.31,0.24-0.03,0.54,0.27,0.83
								c-0.37,0.35-0.65,0.64-1.27,0.87c-1.14,1.69-2.86,2.78-4.5,4.44c1-0.15-0.48,0.49,0.04,0.84c-0.38,0.4-0.54,0.53-0.61,0.53
								l-1.49,0.83c-0.41,0.13,0.3-0.44,0.17-0.51c-0.92,0.76-0.55,0.14-1.24,0.54c0.26,0.06-0.1,0.51-0.67,0.9l0.9-0.42
								c-1.03,1.36-1.42,0.55-2.52,1.85l0.29-0.48c-0.61,0.61-2.45,2.01-2.86,2.86c-0.17,0.03-0.43,0.02-0.15-0.24
								c-0.85,0.57-1.7,1.35-2.53,2.07c-0.85,0.69-1.68,1.31-2.43,1.62l0.05-0.21c-0.3,0.25-0.41,0.6-0.89,0.74
								c-0.01-0.07,0.05-0.21-0.1-0.12c-0.14,0.16-0.73,0.76-1.22,0.94l0.29-0.36c-0.92,0.42-1.53,0.89-2.09,1.38
								c-0.56,0.5-1.08,0.99-1.81,1.41c-0.2-0.39-1.67,0.2-2.4,0.5l0-0.07c-1.04,0.51-1.93,0.95-2.76,1.48
								c-0.83,0.52-1.64,1.03-2.63,1.49c-0.72,0.01-1.79,0.4-2.96,0.79c-1.18,0.36-2.46,0.78-3.52,0.98
								c0.34-0.02,0.05,0.35-0.31,0.48c-0.51,0.05-1.27,0.66-1.3,0.25l0.18-0.04c-0.47-0.28-1.44,0.09-2.23,0.29l-0.01,0.55
								c-1.13-0.15-2.47,0.2-3.7,0.54c-1.24,0.3-2.37,0.55-2.99,0.3c-0.49,0.2-1.11,0.32-1.6,0.49l-0.01-0.28
								c-1.42,0.06-2.12,0.12-3.86,0.32l0.34-0.22c-0.98,0.03-1.19,0.87-2.11,0.93l-0.29-0.41c-1.73,0.13-3.47-0.34-5.18,0.05
								c0.03-0.06,0.08-0.18,0.36-0.2c-0.81,0-3.11-0.47-2.86,0.14c0.01-0.38-1.78-0.12-2.72-0.1l0.17-0.26
								c-0.82,0.26-0.86,0.36-1.97,0.32c-0.26-0.07-0.2-0.25,0.14-0.14c-0.85-0.26-0.72,0.21-1.74-0.12l0.42-0.11
								c-0.88-0.17-0.82-0.07-1.35,0.05c-0.58,0.01-1.67-0.36-1.75-0.63c-0.15,0.13-0.68,0.26-1.18,0.06
								c-0.05-0.11,0.15-0.12,0.25-0.13c-1.42-0.52-2.25-0.18-3.2-0.67c0-0.09-0.05-0.15-0.13-0.2c1.16,0.27,2.09,0.5,2,0.5
								c0.05-0.25-0.87-0.51-0.05-0.68c-0.78,0.01-2.18,0.17-3.05-0.23c-0.04-0.04-0.07-0.07-0.1-0.12l0.1,0
								c-0.2-0.08-0.39-0.11-0.58-0.12c-0.28-0.12-0.45-0.2-0.72-0.29c-0.05-0.23-1.02-0.41-1.48-0.55
								c-0.05,0.28-0.63,0.06-0.14,0.45c-0.07-0.04,0.1-0.01,0.41,0.07c0.07,0.01,0.15,0.03,0.21,0.03l-0.04,0.01
								c0.3,0.08,0.7,0.19,1.15,0.31c-0.4,0.03-0.82,0.04-1.29-0.25c-0.29,0.11-0.61,0.21-0.78,0.25c-0.51-0.59-1.64-1.2-1.73-1.48
								c-1.45-0.29-3.27-1.07-4.32-0.94c-0.42-0.09-0.39-0.32-0.5-0.45c0.24,0.04,0.51,0.15,0.66,0.13
								c-0.41-0.09-0.99-0.31-1.51-0.47c-0.51-0.18-0.95-0.31-1.12-0.18c-0.89-0.59,0.68-0.06-0.66-0.61l0.22-0.02
								c-1.17-0.86-2.32-1.11-3.47-1.49c-1.14-0.38-2.38-0.72-3.54-1.87c0.17,0.15,0.25,0.22,0.26,0.3
								c-1.47-1.06-3.13-1.89-4.69-2.9c-0.79-0.49-1.59-0.96-2.32-1.5c-0.73-0.55-1.43-1.13-2.07-1.76
								c-0.75-0.68-0.99-0.54-1.58-0.79l0.01-0.38l-1.04-0.38c-1.33-0.75-1.58-2.16-3.29-3.06l0.05,0.31
								c-0.49-0.48-1.7-1.33-1.46-1.43c-0.08-0.02-0.31,0.01-0.44-0.24l0.09-0.13c0,0-0.37-0.22-0.71-0.46
								c-0.35-0.24-0.7-0.48-0.7-0.48c-0.86-0.98,0.58-0.32-0.76-1.65c-0.55-0.44-1.76-1.06-1.65-0.8c0.2,0.2,0.45,0.57,0.36,0.7
								l-0.52-0.39c-0.41,0.25-1.12,0.23-0.19,1.58l1,0.57l0.1,0.41l-0.69-0.64c0.24,0.52,0.61,0.62,0.98,0.79
								c-0.02,0.15,0.04,0.32,0.17,0.51l1.09,0.43c-0.03,0.23-0.6-0.08-0.14,0.51c0.53,0.19-0.09-0.63,0.64-0.17
								c0.26,0.51,0.03,0.53,0.62,0.81c-0.01,0.15-0.16,0.12-0.39-0.01c0.52,0.26,1.15,0.93,1.53,0.93
								c0.25,0.56,1.46,1.19,1.14,1.49c0.21,0.03,0.99,0.35,1.4,0.65c-1.07-0.17,1.48,1.22,0.94,1.51c0.82,0.08,2.12,1.37,3.28,1.87
								c-0.08-0.01-0.23-0.03-0.31-0.11c0.54,0.44,0.62,0.67,0.93,1.01c0.3-0.27,1.22,0.3,1.85,0.4c0.5,0.78-0.69,0.1-0.67,0.54
								c0.14-0.29,1.42,0.55,1.32,0.17c0.42,0.55,0.41,0.4,0.51,0.86c0.36-0.35,0.55,0.26,1.17,0.3c0.66,0.71-0.05,0.54,0.92,0.94
								C427.11,357.84,426.23,357.52,426.23,357.52z M449.07,366.48L449.07,366.48c-0.21-0.05-0.38-0.09-0.49-0.12
								C448.68,366.39,448.82,366.42,449.07,366.48z M451.07,366.97c-0.24-0.07-0.55-0.14-0.87-0.21c-0.05-0.11,0.05-0.19,0.25-0.14
								C450.33,366.66,450.79,366.82,451.07,366.97z M447.41,363.99c0.32,0.05,0.4,0.13,0.43,0.2c-0.15-0.03-0.32-0.07-0.54-0.12
								c-0.01,0.01-0.03,0.02-0.05,0.02C447.29,364.04,447.34,364,447.41,363.99z"/>
							<path class="st4" d="M446.75,364.18c-0.05-0.01-0.07,0-0.13-0.02c0.06,0.04,0.11,0.08,0.16,0.11
								c0.05-0.02,0.09-0.04,0.13-0.05C446.87,364.21,446.81,364.2,446.75,364.18z"/>
							<path class="st4" d="M443.53,320.56l0.04-0.01c-0.04,0-0.07,0.01-0.1,0C443.5,320.55,443.5,320.56,443.53,320.56z"/>
							<polygon class="st4" points="479.39,368.7 479.37,368.63 479.2,368.72 							"/>
							<path class="st4" d="M433.05,324.72c-0.03-0.01-0.08-0.01-0.17,0.01C432.9,324.74,432.97,324.73,433.05,324.72z"/>
							<path class="st4" d="M428.82,327.14l-0.64,0.27C428.46,327.3,428.66,327.22,428.82,327.14z"/>
							<path class="st4" d="M425.59,329.04c-0.01,0.07,0,0.11,0,0.14l0.01,0L425.59,329.04z"/>
							<path class="st4" d="M482.09,313.55c0.05,0.01,0.1,0.01,0.15,0.01C482.58,313.56,482.35,313.54,482.09,313.55z"/>
							<path class="st4" d="M464.28,313.92c0.18-0.08,0.36-0.15,0.55-0.21C464.52,313.73,464.27,313.76,464.28,313.92z"/>
							<polygon class="st4" points="501.3,319.04 501.29,319.04 501.41,319.09 							"/>
							<path class="st4" d="M465.66,313.62c-0.32-0.03-0.58,0.03-0.82,0.09C465.09,313.7,465.4,313.67,465.66,313.62z"/>
							<path class="st4" d="M412.39,338.5l-0.15,0.11c0.01,0.01,0.01,0.03,0.01,0.05L412.39,338.5z"/>
							<path class="st4" d="M412.26,338.66l-0.13,0.15C412.19,338.75,412.25,338.7,412.26,338.66z"/>
							<path class="st4" d="M411.84,339.13l0.28-0.32C412.01,338.9,411.86,339.01,411.84,339.13z"/>
							<path class="st4" d="M416.38,335.55l-0.02-0.12C416.35,335.47,416.36,335.51,416.38,335.55z"/>
							<path class="st4" d="M417.57,334.63c-0.3,0.2-0.86,0.35-1.22,0.72l0.01,0.09C416.45,335.17,417.4,334.97,417.57,334.63z"/>
							<path class="st4" d="M423.4,332l-1.08,0.65c0.24-0.04,0.56-0.08,0.11,0.27C423.91,332.28,422.02,332.9,423.4,332z"/>
							<path class="st4" d="M426.71,329.97c-0.54,0.41,0.09,0.13,0.1,0.2C427.11,329.85,427.19,329.77,426.71,329.97z"/>
							<path class="st4" d="M451.8,317.73l0.01,0.26C452.29,317.81,451.78,317.89,451.8,317.73z"/>
							<polygon class="st4" points="456.64,315.03 456.11,315 455.93,315.28 							"/>
							<polygon class="st4" points="460.12,316.15 459.91,316.23 460.73,315.98 							"/>
							<path class="st4" d="M505.15,323.66l0.01-0.35C504.82,323.21,504.59,323.49,505.15,323.66z"/>
							<path class="st4" d="M522.23,334.53c0.08,0.26,0.46,0.69,0.83,0.79C522.72,335.02,522.44,334.64,522.23,334.53z"/>
							<polygon class="st4" points="484.25,365.23 484.62,365.04 483.9,365.28 							"/>
						</g>
					</g>
				</g>
				<g>
					<g>
						<g>
							<path class="st4" d="M356.43,369.21c-0.06-0.16-0.26-0.11-0.3,0.29l0.27,0.34L356.43,369.21z"/>
							<path class="st4" d="M355.31,371.76c0.07,0.5,0.24,1.09,0.59,0.85c-0.22-0.53-0.07-0.61-0.34-1.18
								c0.04-0.4,0.24-0.67,0.35-0.58c-0.06-0.16,0.19-0.6,0.03-0.86c-0.35,0.47-0.49,1.12-0.42,1.84
								C355.42,371.96,355.36,371.81,355.31,371.76z"/>
							<path class="st4" d="M341.5,408.41l0.16-0.2C341.61,408.26,341.55,408.33,341.5,408.41z"/>
							<path class="st4" d="M325.79,426.76c0.13-0.13,0.17-0.2,0.16-0.23C325.84,426.66,325.74,426.77,325.79,426.76z"/>
							<path class="st4" d="M322.35,429.04c0.08-0.05,0.14-0.09,0.21-0.13C322.46,428.95,322.38,428.99,322.35,429.04z"/>
							<path class="st4" d="M341.5,408.41l-0.42,0.51C341.15,409.01,341.32,408.67,341.5,408.41z"/>
							<path class="st4" d="M354.94,377.26c0.02-0.14,0.01-0.26,0-0.37c-0.01,0.11-0.02,0.22-0.04,0.33
								C354.92,377.24,354.93,377.25,354.94,377.26z"/>
							<path class="st4" d="M346.22,398.81l0.08-0.18c-0.01-0.07-0.03-0.14-0.06-0.21L346.22,398.81z"/>
							<path class="st4" d="M349.22,391.17c-0.07,0.17,0.17,0.33,0.26,0.44c-0.07-0.14-0.08-0.29-0.05-0.45
								C349.38,391.14,349.31,391.14,349.22,391.17z"/>
							<path class="st4" d="M353.4,378.8l0.02-0.23C353.41,378.63,353.4,378.73,353.4,378.8z"/>
							<path class="st4" d="M343.58,404.05c-0.04-0.01-0.09,0-0.12,0.02C343.49,404.09,343.53,404.08,343.58,404.05z"/>
							<path class="st4" d="M346.52,365.99c-0.01,0.02,0,0.03-0.01,0.05C346.57,366.02,346.59,366,346.52,365.99z"/>
							<path class="st4" d="M355.76,369.16l-0.13-0.02c-0.03,0.05-0.06,0.1-0.07,0.15L355.76,369.16z"/>
							<path class="st4" d="M315.91,432.88c0.01,0,0.02-0.01,0.03-0.01C316.1,432.75,316,432.8,315.91,432.88z"/>
							<path class="st4" d="M260.23,433.63c-0.36,0.74-0.15-1.31-0.58-0.18C259.77,433.37,259.93,434.57,260.23,433.63z"/>
							<path class="st4" d="M354.86,377.46l-0.08,0.33C354.83,377.64,354.85,377.54,354.86,377.46z"/>
							<path class="st4" d="M259.64,433.46L259.64,433.46l-0.04,0.12C259.62,433.53,259.63,433.5,259.64,433.46z"/>
							<path class="st4" d="M300.05,439.58c0.05,0.04,0.12,0.05,0.2,0.07C300.23,439.62,300.19,439.6,300.05,439.58z"/>
							<path class="st4" d="M312.28,435.45l-0.31,0.1C312.1,435.52,312.19,435.48,312.28,435.45z"/>
							<path class="st4" d="M293.57,441.43c-0.18,0.01-0.24-0.02-0.47,0.06c0.02,0.01,0.05,0.02,0.08,0.02
								C293.26,441.46,293.37,441.42,293.57,441.43z"/>
							<path class="st4" d="M286.63,442.49c0.04,0.02,0.09,0.03,0.14,0.04c0.07-0.01,0.15-0.03,0.22-0.05L286.63,442.49z"/>
							<path class="st4" d="M324.72,367.05c0.17,0.04,0.28,0.11,0.37,0.18C324.95,367.05,325.97,366.79,324.72,367.05z"/>
							<path class="st4" d="M354.79,377.23c0.06,0.06,0.08,0.12,0.07,0.23c0.01-0.08,0.03-0.16,0.04-0.23
								C354.86,377.2,354.83,377.19,354.79,377.23z"/>
							<path class="st4" d="M293.69,443.66l-1.13,0.17C292.88,443.8,293.29,443.74,293.69,443.66z"/>
							<path class="st4" d="M280.05,391.19l0.16-0.21C280.13,391.05,280.07,391.12,280.05,391.19z"/>
							<path class="st4" d="M289.22,444.38c-0.22-0.07-0.44-0.1-0.66-0.11c-0.04,0.03-0.09,0.05-0.12,0.09L289.22,444.38z"/>
							<path class="st4" d="M325.09,367.23L325.09,367.23L325.09,367.23z"/>
							<path class="st4" d="M332.47,365.56c-1.09,0.1-0.48,0.41-0.69,0.64c-1.28,0.23-0.63-0.21-1.09-0.36
								c-0.8,0.17-1.38,0.57-1.97,0.67c-0.05-0.05-0.17-0.06-0.05-0.15c-0.8,0.43-2.52,0.42-3.43,0.94
								c-0.08-0.02-0.12-0.05-0.15-0.07c0.19,0.15,0.25,0.34,0.24,0.47c-0.47,0.1-0.83,0.42-1.06,0.22c0.29-0.06,0.3-0.16,0.42-0.26
								l-0.48,0.21c-0.52-0.24,0.65-0.27,0.6-0.52c-0.95,0.32-2.01,0.85-2.78,0.92c-0.23-0.3,1.71-0.49,0.65-0.57l1.18-0.13
								c-0.99-0.33,0.71-0.12-0.22-0.5c-1.54,0.24-1.67,0.53-3.2,0.79c-0.29,0.28,0.18,0.24-0.11,0.52
								c-2.02,0.92-1.9-0.36-3.34,0.51c-0.34,0.33-0.37,0.77-1.52,0.93l0.25-0.49c-1.44,0.45-0.64,0.8-2.21,1.06
								c0.21-0.23,1.08-0.5,0.85-0.47c-1.06,0.04-0.61,0.44-1.35,0.69l-0.27-0.27c-1.5,0.58-3.03,1.51-4.65,2.2
								c0.05-0.13,0.29-0.34-0.13-0.28c-1.96,1.09-4.37,1.92-6.36,2.79l-0.59,0.64c-0.17,0.09-0.38,0.05-0.22-0.1
								c-0.8,0.29,0.05,0.18-0.25,0.47c-0.41,0.24-0.64,0.14-0.41-0.07c-0.6,0.45-1.43,1.13-2.31,1.72
								c-0.88,0.6-1.82,1.12-2.54,1.43l0.21-0.24c-1.08,0.57-0.82,1.26-1.9,1.65l0.15-0.16c-1.15,0.65-2.25,1.5-3.3,2.27
								c-1.06,0.76-2.08,1.46-2.98,1.93c-0.03,0.57-2.15,1.5-1.9,2.06c-1.33,0.75-1.06,0.41-2.78,1.67
								c-0.44,0.36-0.38,0.84-0.86,1.35l-0.22-0.21c0,0-0.46,0.9-0.46,0.9l-0.62,0.09l-0.41,0.52c0.2-0.17,0.49-0.29,0.53-0.2
								c-0.63,0.82-1.93,1.61-2.06,1.52c0,0-0.39,0.47-0.74,0.97c-0.36,0.49-0.72,0.99-0.72,0.99c-0.06-0.12,0.19-0.45,0.35-0.75
								c-0.64,1.17-0.4-0.04-0.99,1.03c0.16-0.07,0.08,0.19,0.11,0.25c-0.54,0.31-1.46,1.3-2.02,2.15l-0.04-0.29
								c-1.19,1.36-2.36,3-3.53,4.66c0.51-0.53,0.71-0.17,0.39,0.32h-0.4c-0.06,0.43,0.46-0.43,0.2,0.35
								c-0.48,0.58-0.6,0.19-0.43-0.22l-0.45,0.81c-0.11-0.01-0.03-0.22-0.09-0.33c-0.07,0.41-1.19,1.12-1.19,1.78l-0.11-0.01
								c-1.11,1.71-1.55,2.52-2.34,3.98c0.23,0.17-0.15,0.7-0.2,1.24c-0.33,0.5-0.74,1.01-1.11,1.58c-0.36,0.57-0.71,1.18-1.03,1.84
								c-0.33,0.98,0.08,0.37,0.02,0.86c-0.26-0.04-0.89,1.27-0.72,0.52c-0.7,1.61-0.85,2.08-1.54,4.2
								c0.19-0.18,0.34-0.41,0.37-0.25c-0.12,0.38-0.46,0.8-0.54,0.71l0.01-0.11c-0.24,1.24-0.89,2.52-1.51,3.77
								c-0.57,1.26-1.05,2.5-1.07,3.53l0-0.11c0,0-0.07,0.51-0.14,1.03c-0.04,0.52-0.08,1.04-0.08,1.04
								c-0.24,0.92-0.07-0.6-0.37,0.05c-0.02,1.14-0.22,1.99-0.42,2.8c-0.19,0.81-0.32,1.58-0.31,2.51c-1.02,1.31-0.46,5.02-1,6.91
								l0.18-0.11c0.18,0.5-0.1,0.6-0.13,0.97c0.14-0.05,0.16-0.54,0.25-0.23c0.03,0.53,0.05,1.05,0.06,1.59
								c0.01,0.87,0.01,1.75,0.02,2.64c0.01,0.02-0.01,0.07,0.01,0.07l0.08,0l0.17,0.01l0.34,0.02l0.68,0.03l1.37,0.07l1.6,0.12
								c2.14,0.2,4.3,0.36,6.42,0.49c1.56,0.04,0.88-0.92,2.84-0.5l-0.55,0.33c1.57-0.19,3.17-0.21,4.77-0.25
								c0.8-0.02,1.59-0.03,2.38-0.07c0.79-0.06,1.57-0.14,2.33-0.27c-0.18,0.09-0.18,0.19-0.48,0.2c0.66,0.2,2.4-0.13,2.4-0.32
								c0.48-0.01,0.12,0.17,0.43,0.25c0.66,0.08,1.61-0.46,1.97-0.25c0.06,0.03-0.18,0.09-0.29,0.12c0.41-0.16,1.98-0.16,1.55-0.39
								c1.17,0.04,2.19-0.35,3.12-0.32c0.55-0.39,1.99-0.12,2.11-0.58c-0.01,0.22,0.51,0.26,1.11,0.17c0.6-0.1,1.29-0.31,1.63-0.48
								c-0.22,0.18,0.65,0.02,0.4,0.26c0.82-0.16,1.56-0.38,1.37-0.58c1.63,0.26,2.92-1.12,3.93-0.63c1.19-0.38,2.31-0.83,3.4-1.26
								c1.09-0.44,2.17-0.76,3.19-1.24c0.08,0.49-2.33,0.82-2.1,1.23c0.5-0.2,0.93-0.39,1.34-0.58c0.4-0.21,0.77-0.41,1.15-0.61
								c0.75-0.39,1.5-0.75,2.5-1.06c0.53-0.13-0.22,0.29-0.36,0.43c0.97-0.44,1.91-0.86,2.82-1.27c0.91-0.41,1.8-0.81,2.6-1.32
								c0.02,0.04-0.15,0.17-0.31,0.28c0.34-0.15,0.8-0.34,0.67-0.5l-0.29,0.22c-0.65,0.01,1.01-1.26,1-1.43
								c-0.28,0.82,1.7-0.75,1.18,0.38c0.2-0.15,0.42-0.38,0.3-0.48c0.34-0.14,0.48-0.12,0.23,0.19c1.11-0.75,0.61-0.66,1.64-1.3
								c0.05,0.09-0.14,0.25-0.18,0.42c0.42-0.5,0.83-0.99,1.73-1.47c-0.02,0.08,0.12,0.09-0.13,0.25c0.73-0.49,1.29-1,1.87-1.49
								c0.58-0.51,1.14-1.07,1.96-1.56c-0.19,0.69,0.6-0.28,0.91-0.04l0.76-0.71l-0.44,0.11c0.36-0.27,0.66-0.58,0.95-0.87
								c0.28-0.3,0.55-0.6,0.88-0.8l-0.4,0.56l1.22-1.17l-0.81,0.52c0.56-0.75-0.38-0.3,0.58-1.01c-0.16,0.19,0.67-0.59,1.17-0.73
								l0,0c0.25-0.38,0.51-0.77,1.07-1.15c0.2-0.04,0.19,0.4,0.32,0.38c0.09-0.54,1.43-1.56,1.59-2.18
								c-0.07,0.19,0.06,0.33,0.13,0.32l0.08-0.44c0.35-0.24,0.42-0.25,0.49-0.1c0.91-0.86-0.61-0.03,0.56-0.97
								c-0.06,0.1,0,0.09-0.13,0.29c1.07-1.04,1.82-2.24,2.8-3.2c0.56-0.06-0.71,0.97-0.17,0.82c0.63-0.76,1.17-1.66,1.74-2.5
								c0.58-0.84,1.12-1.69,1.71-2.44l-0.24,0.26c-0.27-0.53,1.05-1,1.42-1.93c-0.11,0.21,0.06,0.42,0.05,0.33
								c0.83-1.02,1.38-2.31,2.32-4.06l-0.01,0.28c0.5-0.6,1.09-1.72,1.57-2.41c0.01-0.28,0.27-0.68-0.05-0.53
								c1.94-1.88,1.96-4.5,3.49-6.28c-0.12,0.25-0.17,0.64-0.08,0.44c0,0,0.18-0.45,0.36-0.91c0.18-0.45,0.35-0.91,0.35-0.91
								c-0.27,0.05-0.23,0.18-0.57,0.47c-0.01-0.28,0.11-0.82,0.29-1.26c-0.2,0.86,0.34,0.14,0.61-0.15
								c-0.09,0.03-0.11-0.12-0.19-0.12c0.77-0.77-0.36-0.34,0.43-1.5l0.08,0.11c0.14-0.5,0.2-0.99,0.42-1.5
								c0.33-0.12-0.08,0.56,0.1,0.67c0.28-0.73,0.08-1.63,0.59-2.19c-0.05,0.34-0.22,0.78-0.27,1.12c0.57-0.61,0.53-0.72,0.78-1.24
								l-0.03,0.05l0.61-1.19l-0.2,0.29c-0.3-1.15,0.54-1.93,0.54-3.32c-0.01,1.35,0.17,0.28,0.42,0.47
								c0.19-0.29,0.44-0.75,0.48-0.58c-0.02-0.67,0.52-0.93,0.43-1.89c0.1-0.01,0.21-0.64,0.4-0.43c0.17-0.8-0.22,0.13-0.32,0.03
								c0.06-1.29,1.26-2.71,1.27-4.57c0.23-1.55-0.01-1.91,0.16-3.34c0.27-0.43,0.25,0.47,0.25,0.47c0.33-0.73,0.44-1.31,0.51-2.05
								c0.05,0.16,0.15,0.03,0.31-0.16c0.12-0.58-0.25-0.47,0.06-1.2c0.08,0.15,0.21,0.36,0.25,0.67c0.06-0.7,0.03-1.42,0.1-2.14
								c0.21-0.15,0.16,0.48,0.21,0.75c0.1-0.81,0.3-2.09,0.09-2.39l-0.21,0.49c0.05-0.29,0.26-0.1,0.26,0.12
								c0.06,0.72-0.31,0.96-0.41,0.98l0.05-0.52c-0.67,0.39-0.35,2.04-0.61,3.04l-0.31-0.51l0.09,1.11
								c-0.16,0.19-0.42,0.29-0.36-0.22c-0.38,0.67-0.01,0.67-0.39,1.23c-0.05,0.06-0.06,0.02-0.06-0.04l-0.05,0.73
								c-0.05-0.16-0.31,0.05-0.15-0.37c-0.53,1.2-0.2,2.11-0.64,2.5l0-0.11c-0.34,1.77,0.25,0.25,0.24,1.65l-0.97,0.67l0.25,0.25
								c-0.06,0.18-0.18,0.52-0.28,0.42c0,0.72,0.16-0.08,0.23,0.36c-0.53,0.78-0.6,2.4-1.12,2.45c0.13,0.38,0.42-0.76,0.3,0.2
								c-0.57,0.1-0.24,1.08-0.74,1.78c-0.17-0.32,0.21-1.01-0.28-0.31c0.27,0.61-0.61,1.47-0.75,2.14
								c0.35,0.16-0.36,1.46-0.67,2.58c-0.09-0.11-0.94,1.96-1.51,2.88l-0.04-0.05c0.26,0.33-0.24,1.32-0.49,2.1
								c-0.19-0.12-0.21-0.29-0.13-0.73l-0.29,0.69c0.04,0.21,0,0.45-0.18,0.91l-0.17-0.29c-0.42,0.91-0.58,1.97-1.29,3.05
								c0.19,0.18,1.09-0.61,0.63,0.7c-0.15-0.02-0.38-0.08-0.27-0.42c-0.04,0.11-0.09,0.42-0.26,0.61l0.05-0.59
								c-0.37,0.48,0.03,0.36-0.21,0.77c-0.17-0.1-0.29,0.25-0.4,0.11c0.04-0.12,0.27-0.33,0.28-0.52
								c-0.28,0.45-0.68,0.97-0.91,1.09c0.12,0.01,0.24,0.12,0.08,0.48c-0.46,0.9-0.37,0.19-0.73,0.66
								c0.01,0.28-0.42,0.77-0.18,0.93c-0.15,0.25-0.3,0.23-0.42,0.29c-0.15,0.51-1.2,2.11-0.63,1.77l0.09-0.1
								c-0.01,0.02-0.02,0.05-0.03,0.08c0,0,0,0,0,0l0,0c-0.29,0.82-0.8,1.55-1.35,2.25c-0.54,0.71-1.09,1.4-1.5,2.14l-0.08-0.06
								c-0.5,0.88-1.27,1.86-1.52,2.57c-0.18,0.24-0.56,0.46-0.58,0.29c-0.4,0.66-0.39,0.79-1.21,1.56c0.35-0.71-0.29,0.11,0.4-0.7
								c-0.7,0.73-0.96,0.8-1.43,1.81c0.03-0.45-0.7,0.39-0.98,0.78l0.6-0.41c-0.32,0.43-0.66,0.76-0.99,1.1l-0.08-0.41
								c-0.83,0.62-1.31,1.42-1.79,2.16c-0.5,0.71-1,1.35-1.78,1.66c-0.22,0.55,0.9-0.67,0.75-0.14c-0.7,0.64-1.72,0.99-1.93,1.19
								c-1.08,0.72-0.56,1.15-1.66,1.95c0.21-0.02,0.54,0.1-0.15,0.86c-0.74,0.6-1.19,0.39-0.81-0.08c0.16-0.16,0.27-0.2,0.29-0.16
								c0.2-0.23,0.46-0.54,0.1-0.39l-0.01,0.17c-0.43,0.22-1.39,1.08-1.28,0.73c-0.46,0.56-0.1,0.35,0.33,0.05
								c-1.01,0.67-1.49,1.15-2.53,1.82c0.2-0.07,0.43-0.06,0.27,0.05c-1.54,0.98-0.5,0.66-1.46,1.45
								c-0.67,0.26-0.03-0.47-0.97,0.34c-0.71,0.31-0.31-0.17-0.11-0.42c-0.82,0.8-1.85,1.01-2.41,1.32l0.44-0.4
								c-0.27,0.24-0.51,0.39-0.76,0.55l0.41,0.02c-0.31,0.15-0.56,0.31-0.61,0.22c-0.22,0.33,0.44,0.19-0.05,0.76
								c-0.44,0.17-1.17,0.81-1.46,0.62c1.34-0.6-0.3-0.2,0.76-0.83c-0.19,0.15-0.45,0.28-0.77,0.41c-0.06-0.01,0.01-0.08,0.09-0.14
								c-1.36,0.42-0.39,0.61-1.66,1.3c0.08-0.24-0.45-0.14-0.64,0.01c0.51-0.27,0.38,0.13-0.03,0.51c-0.88,0.33-0.84,0.58-1.3,0.76
								l0.54-0.17c-0.09,0.24-0.53,0.41-1.1,0.73c-0.11-0.1,0.5-0.33,0.26-0.29c-0.53,0.58-1.62,0.38-2.45,0.99
								c-0.47,0.08-0.17-0.29-0.58-0.19c-0.94,0.67-1.22,0.22-2.25,0.82c0.4,0.1,0.44,0.03-0.26,0.54l1.76-0.84l-1.04,0.76
								c0.55-0.2,1.11-0.57,1.46-0.66c-0.49,0.39-0.45,0.31-0.11,0.4c-0.89-0.05-1.43,0.76-2.39,0.86l-0.18-0.57
								c-0.7,0.11-1.25,0.42-1.86,0.71c-0.61,0.28-1.28,0.59-2.17,0.78l0.59-0.07c-0.17,0.3-1.07,0.36-1.6,0.62
								c0-0.21-0.37-0.17-0.64-0.21c0.07,0.16-1.29,0.31-1.35,0.73l-0.85-0.06c-1.45,0.22-1.5,0.97-2.91,1.17
								c0.38-0.29-0.28-0.3,0.61-0.64c-0.46,0.09-0.89,0.13-0.87,0.27c-0.29-0.07-1.24,0.5-1.7,0.39c-0.18,0.12-0.21,0.34-0.73,0.42
								c-0.06-0.03-0.01-0.1-0.01-0.1c0.02,0.1-0.8,0.28-0.3,0.41c-1.53-0.33-4.04,0.62-5.37,0.28c-1.02,0.17-2.26,0.34-3.19,0.45
								c0.05-0.06-0.01-0.1,0.17-0.09c-1.3-0.07-0.74,0.66-2.24,0.55c-0.78-0.27,0.77-0.22,0.29-0.31
								c-0.25-0.64-1.77,0.19-2.78-0.13l0.24-0.05c-0.77-0.18-1.83,0.37-3.08,0.34c0,0,0.06-0.06,0-0.1
								c-0.84,0.35-2.44,0.52-3.64,0.63c0.37-0.25,0.54-0.15,0.31-0.4c-0.54,0.04,0.16,0.42-0.91,0.49
								c-0.35-0.14-1.12-0.26-1.23-0.53l1.01-0.02c-0.52-0.36-1.3,0.02-1.83-0.04l0.07-0.16c-1.54,0.05-1.57,0.46-3.23,0.4
								l0.17,0.12c-0.91,0.37-0.76-0.23-1.67,0.04l-0.27-0.4c-0.6,0.09-2.11,0.35-3.19,0.38c0.62-0.27,1.88-0.38,2.66-0.55
								c-0.59-0.01-2.02-0.02-2.33,0.16c0.24-0.03,0.54-0.12,0.78-0.05c-0.73,0.29-1.73,0.41-2.86,0.36c0.06-0.19-0.05-0.3-0.2-0.37
								c-0.07-0.03-0.16-0.06-0.26-0.07c-0.05-0.01-0.1-0.01-0.15-0.02l-0.08-0.01c-0.02-0.01,0-0.06-0.01-0.08
								c0.01-0.25,0.02-0.51,0.06-0.73c0.04-0.39,0.11-0.77,0.26-0.98c-0.08-0.51-0.11-1.03-0.12-1.55c0-0.52,0.08-1.04,0.14-1.57
								c0.15-1.06,0.25-2.16,0.39-3.35c-0.71,0.78,0.08-0.7-0.55-0.62c0.04-0.56,0.08-0.78,0.12-0.82l0.59-1.63
								c0.23-0.37,0.06,0.55,0.2,0.52c0.22-1.2,0.3-0.47,0.62-1.23c-0.25,0.12-0.22-0.47,0-1.14l-0.48,0.91
								c0.03-1.74,0.81-1.34,0.84-3.09l0.08,0.58c0.01-0.9,0.83-3.13,0.58-4.11c0.11-0.13,0.33-0.28,0.26,0.11
								c0.29-1.01,0.59-2.15,0.86-3.24c0.27-1.09,0.55-2.13,1.04-2.82l0.08,0.2c0.11-0.38,0.01-0.74,0.34-1.14
								c0.05,0.05,0.07,0.2,0.15,0.04c0.03-0.21,0.17-1.07,0.46-1.52l-0.02,0.48c0.99-1.81,1.02-3.02,1.68-4.65
								c0.36,0.19,1.31-1.14,1.77-1.81l0.04,0.06c1.2-2.08,1.83-3.66,2.9-5.65c1.21-0.84,2.9-3.71,4.57-5.22
								c-0.28,0.21-0.23-0.26-0.01-0.6c0.4-0.35,0.69-1.32,0.94-0.99l-0.12,0.14c0.55-0.05,1.2-0.9,1.77-1.51l-0.3-0.46
								c0.51-0.28,1-0.69,1.46-1.17c0.47-0.47,0.94-0.97,1.37-1.46c0.88-0.98,1.65-1.91,2.34-2.04c0.3-0.45,0.79-0.89,1.1-1.34
								l0.17,0.23c1.14-0.93,1.69-1.4,3.07-2.58l-0.16,0.39c0.8-0.63,0.49-1.45,1.22-2.06l0.48,0.15c1.42-1.09,3.09-1.86,4.32-3.18
								c0.01,0.07,0.04,0.2-0.2,0.37c0.71-0.45,2.87-1.55,2.3-1.87c0.22,0.3,1.56-0.99,2.32-1.6l0.01,0.31
								c0.52-0.72,0.49-0.82,1.43-1.48c0.25-0.11,0.31,0.07-0.03,0.19c0.86-0.32,0.46-0.61,1.51-0.99l-0.28,0.35
								c0.83-0.41,0.72-0.46,1.08-0.88c0.47-0.37,1.6-0.76,1.83-0.6c0.04-0.19,0.4-0.62,0.92-0.8c0.11,0.06-0.05,0.19-0.12,0.26
								c1.49-0.48,1.96-1.26,3.05-1.46c0.06,0.08,0.14,0.09,0.23,0.08c-1.12,0.51-2.03,0.91-1.95,0.85
								c0.11,0.23,1.03-0.14,0.46,0.51c0.64-0.5,1.7-1.48,2.64-1.74c0.05,0.01,0.11,0.01,0.15,0.03l-0.08,0.06
								c0.22-0.06,0.39-0.15,0.55-0.26c0.3-0.08,0.5-0.12,0.77-0.23c0.19,0.15,1.1-0.31,1.56-0.49c-0.14-0.25,0.48-0.45-0.17-0.44
								c0.08-0.01-0.07,0.07-0.38,0.2c-0.07,0.04-0.15,0.07-0.19,0.11l0.02-0.04c-0.3,0.13-0.69,0.29-1.14,0.47
								c0.31-0.28,0.65-0.54,1.21-0.6c0.17-0.26,0.37-0.54,0.48-0.68c0.77,0.09,2.08-0.11,2.33,0.06c1.38-0.64,3.33-1.25,4.11-1.97
								c0.4-0.18,0.52,0.01,0.7,0.05c-0.23,0.12-0.51,0.19-0.62,0.3c0.79-0.36,2.44-0.74,2.55-1.15c1.1-0.09-0.52,0.46,0.93,0.07
								l-0.17,0.15c1.5-0.03,2.6-0.51,3.77-0.98c1.18-0.4,2.42-0.8,4.08-0.68c-0.23-0.01-0.34-0.01-0.4-0.07
								c0.93-0.07,1.87-0.1,2.82-0.21c0.94-0.08,1.89-0.27,2.84-0.3c1.9-0.12,3.81-0.26,5.63,0.11c1.04,0.13,1.15-0.1,1.8-0.26
								l0.21,0.31c0,0,0.28-0.09,0.55-0.14c0.28-0.06,0.55-0.12,0.55-0.12c0.78-0.06,1.43,0.19,2.13,0.41
								c0.7,0.22,1.44,0.41,2.44,0.35l-0.22-0.24c0.69,0.15,2.22,0.24,2.06,0.45c0.08-0.02,0.26-0.17,0.52-0.02l-0.01,0.16
								c0,0,0.44,0,0.88,0c0.43,0.03,0.87,0.06,0.87,0.06c1.28,0.42-0.33,0.57,1.54,1.04c0.71,0.1,2.11,0.02,1.88-0.14
								c-0.28-0.07-0.7-0.27-0.69-0.42l0.67,0.07c0.24-0.42,0.88-0.76-0.67-1.46l-1.2,0.01l-0.31-0.31l0.96,0.21
								c-0.49-0.33-0.88-0.23-1.29-0.19c-0.06-0.14-0.21-0.26-0.42-0.35c0,0-0.3,0.04-0.6,0.09c-0.3,0.04-0.6,0.1-0.6,0.1
								c-0.1-0.2,0.58-0.27-0.16-0.49c-0.57,0.12,0.43,0.48-0.47,0.48c-0.51-0.3-0.32-0.44-0.99-0.37c-0.07-0.13,0.08-0.19,0.34-0.2
								c-0.6,0.05-1.53-0.19-1.86,0.01c-0.27-0.17-0.75-0.24-1.16-0.3c-0.41-0.04-0.73-0.1-0.68-0.32c-0.2,0.09-1.06,0.25-1.59,0.22
								c1.02-0.44-1.98-0.22-1.69-0.76c-0.75,0.4-2.62,0.12-3.9,0.34c0.07-0.04,0.21-0.11,0.33-0.08c-0.72-0.06-0.93-0.21-1.39-0.3
								c-0.09,0.4-1.21,0.53-1.8,0.79c-0.89-0.35,0.52-0.48,0.23-0.83c0.05,0.32-1.52,0.37-1.21,0.63c-0.68-0.21-0.58-0.09-0.95-0.4
								c-0.09,0.5-0.62,0.09-1.16,0.46c-0.99-0.15-0.29-0.43-1.34-0.18C331.54,365.82,332.47,365.56,332.47,365.56z M308.15,372.63
								L308.15,372.63c0.2-0.09,0.37-0.17,0.48-0.21C308.53,372.46,308.39,372.53,308.15,372.63z M306.22,373.52
								c0.24-0.1,0.53-0.23,0.84-0.38c0.11,0.06,0.07,0.18-0.12,0.27C307.02,373.31,306.54,373.46,306.22,373.52z M311.07,373.57
								c-0.29,0.16-0.41,0.15-0.48,0.11c0.14-0.07,0.31-0.14,0.52-0.24c0.01-0.01,0.02-0.03,0.02-0.05
								C311.13,373.45,311.11,373.51,311.07,373.57z"/>
							<path class="st4" d="M311.48,373.01c0.04-0.02,0.06-0.04,0.12-0.07c-0.07,0-0.14,0.01-0.21,0.01
								c-0.03,0.04-0.05,0.09-0.08,0.13C311.38,373.05,311.43,373.03,311.48,373.01z"/>
							<path class="st4" d="M341.69,408.18l-0.03,0.04c0.03-0.03,0.05-0.05,0.08-0.06C341.72,408.17,341.71,408.17,341.69,408.18z"
								/>
							<polygon class="st4" points="281.64,389.42 281.69,389.47 281.79,389.3 							"/>
							<path class="st4" d="M347.83,398.3c0.03-0.01,0.07-0.04,0.13-0.11C347.94,398.19,347.89,398.24,347.83,398.3z"/>
							<path class="st4" d="M349.78,393.66l0.35-0.63C349.96,393.3,349.86,393.5,349.78,393.66z"/>
							<path class="st4" d="M351.22,390.06c-0.03-0.06-0.06-0.09-0.09-0.11l0,0.01L351.22,390.06z"/>
							<path class="st4" d="M313.34,437.03c-0.05,0.02-0.09,0.05-0.13,0.07C312.91,437.3,313.12,437.18,313.34,437.03z"/>
							<path class="st4" d="M328.14,426.12c-0.11,0.17-0.22,0.33-0.35,0.49C328.04,426.41,328.24,426.24,328.14,426.12z"/>
							<path class="st4" d="M293.82,443.65L293.82,443.65c-0.04,0-0.08,0.01-0.12,0.02L293.82,443.65z"/>
							<path class="st4" d="M327.14,427.17c0.28-0.17,0.48-0.36,0.64-0.56C327.57,426.77,327.31,426.96,327.14,427.17z"/>
							<path class="st4" d="M355.71,373.9l0.05-0.18c-0.02,0-0.03-0.02-0.04-0.03L355.71,373.9z"/>
							<path class="st4" d="M355.72,373.69l0.01-0.21C355.72,373.57,355.7,373.65,355.72,373.69z"/>
							<path class="st4" d="M355.76,373.04l-0.02,0.44C355.77,373.33,355.82,373.15,355.76,373.04z"/>
							<path class="st4" d="M354.45,378.86l0.08,0.08C354.52,378.91,354.49,378.88,354.45,378.86z"/>
							<path class="st4" d="M354.1,380.38c0.11-0.35,0.43-0.85,0.49-1.37l-0.07-0.07C354.62,379.22,354.02,380,354.1,380.38z"/>
							<path class="st4" d="M351.14,386.27l0.46-1.21c-0.17,0.19-0.4,0.43-0.25-0.14C350.56,386.38,351.68,384.66,351.14,386.27z"/>
							<path class="st4" d="M349.75,390.03c0.18-0.67-0.15-0.04-0.2-0.1C349.51,390.38,349.5,390.49,349.75,390.03z"/>
							<path class="st4" d="M336.46,415.52l-0.16-0.21C336,415.75,336.37,415.38,336.46,415.52z"/>
							<polygon class="st4" points="333.92,420.64 334.39,420.35 334.38,420.01 							"/>
							<polygon class="st4" points="330.36,421.81 330.5,421.62 329.94,422.31 							"/>
							<path class="st4" d="M287.84,442.08l0.2,0.29C288.39,442.26,288.41,441.9,287.84,442.08z"/>
							<path class="st4" d="M266.93,443.38c-0.23-0.16-0.82-0.27-1.18-0.12C266.22,443.28,266.69,443.41,266.93,443.38z"/>
							<polygon class="st4" points="279.5,395.18 279.29,395.56 279.76,394.91 							"/>
						</g>
					</g>
				</g>
				<g>
					<g>
						<g>
							<path class="st4" d="M401.9,638.85c-0.16,0.89,0.16,0.45,0.8-1.95l0.16-1.79L401.9,638.85z"/>
							<path class="st4" d="M407.04,622.94c0.64-2.85,1.29-6.17,0.48-4.43c-0.48,2.87-0.8,3.5-1.28,6.6
								c-0.64,2.4-1.28,4.14-1.29,3.71c-0.16,0.87-1.12,3.69-1.28,5.04c1.13-3.04,2.25-6.98,3.21-11.15
								C407.19,621.84,407.03,622.73,407.04,622.94z"/>
							<path class="st4" d="M342.91,580.17c0,0-0.09,0.39-0.19,0.78c-0.09,0.39-0.2,0.77-0.2,0.77
								C342.65,581.32,342.77,580.77,342.91,580.17z"/>
							<path class="st4" d="M426.84,469.3c-1.12,0.17-1.59,0.26-1.64,0.3C426.24,469.44,427.09,469.3,426.84,469.3z"/>
							<path class="st4" d="M452.3,469.9c-0.57-0.05-1.06-0.08-1.57-0.15C451.32,469.86,451.94,469.9,452.3,469.9z"/>
							<path class="st4" d="M342.91,580.17c0,0,0.27-1.01,0.41-2c0.16-0.99,0.33-1.98,0.33-1.98c-0.03-0.15-0.12,0.36-0.24,1.14
								C343.27,578.13,343.17,579.18,342.91,580.17z"/>
							<path class="st4" d="M415.38,590.52c-0.21,0.81-0.37,1.5-0.51,2.12c0.18-0.67,0.35-1.31,0.52-1.98
								C415.39,590.62,415.38,590.59,415.38,590.52z"/>
							<path class="st4" d="M383.02,540.38l0.93-0.8c0.26-0.25,0.49-0.5,0.71-0.74c0,0-0.42,0.38-0.83,0.75
								C383.42,539.98,383.02,540.38,383.02,540.38z"/>
							<path class="st4" d="M427.1,515.09c-1.11,0.34-1.4,0.73-1.79,0.98c0.58-0.31,1.38-0.62,2.34-0.95
								C427.66,515.06,427.5,515.04,427.1,515.09z"/>
							<path class="st4" d="M419.58,579.86l-0.35,1.39C419.32,580.88,419.47,580.27,419.58,579.86z"/>
							<path class="st4" d="M357.01,565.97c-0.09,0.04-0.24,0.15-0.39,0.27C356.65,566.27,356.79,566.16,357.01,565.97z"/>
							<path class="st4" d="M348.97,615.24c-0.05,0,0,0.04-0.02,0.04C349.22,615.4,349.31,615.43,348.97,615.24z"/>
							<path class="st4" d="M402.52,639.1l-0.79-0.21c-0.1,0.03-0.2,0.05-0.21,0.11L402.52,639.1z"/>
							<path class="st4" d="M476.86,431.08c-0.04,0.08-0.06,0.11-0.09,0.19C476.27,432.4,476.56,431.76,476.86,431.08z"/>
							<path class="st4" d="M461.01,165.59c4.87-0.49-7.81,1.52-0.5,0.69C459.81,166.27,467.05,164.84,461.01,165.59z"/>
							<path class="st4" d="M415.77,589.26c0.19-0.66,0.38-1.33,0.57-2.01C416.07,588.16,415.9,588.78,415.77,589.26z"/>
							<path class="st4" d="M460.51,166.28L460.51,166.28l0.75-0.09C460.95,166.23,460.78,166.25,460.51,166.28z"/>
							<path class="st4" d="M555.93,376.96c-0.2-0.11-0.59-0.25-1.01-0.41C554.94,376.59,555.17,376.69,555.93,376.96z"/>
							<path class="st4" d="M488.42,406.09c0,0,0.25-0.43,0.49-0.86c0.27-0.41,0.54-0.83,0.54-0.83
								C489.01,405.05,488.68,405.6,488.42,406.09z"/>
							<path class="st4" d="M578.18,372.83c-0.1-1.08-0.1-1.45-0.31-2.92c0,0.14,0.01,0.27,0.02,0.45
								C577.99,370.89,578.08,371.6,578.18,372.83z"/>
							<path class="st4" d="M572.78,329.54c0.02,0.23,0.04,0.54,0.06,0.81c0.07,0.43,0.15,0.93,0.21,1.37L572.78,329.54z"/>
							<path class="st4" d="M253,525.93c0.51,0.81,0.8,1.33,1.01,1.75C253.76,527.03,257.67,532.09,253,525.93z"/>
							<path class="st4" d="M415.54,590.54c0-0.26,0.07-0.63,0.24-1.28c-0.13,0.48-0.26,0.95-0.38,1.4
								C415.4,590.79,415.43,590.83,415.54,590.54z"/>
							<path class="st4" d="M575.77,371.32l-0.73-6.89C575.25,366.35,575.51,368.86,575.77,371.32z"/>
							<path class="st4" d="M188.33,264.05l-1.35,0.84C187.51,264.59,187.99,264.29,188.33,264.05z"/>
							<path class="st4" d="M572.58,344.04c-0.06-1.24-0.14-2.55-0.3-3.89c-0.06-0.28-0.13-0.6-0.19-0.78c0,0,0.16,1.16,0.26,2.33
								C572.47,342.87,572.58,344.04,572.58,344.04z"/>
							<path class="st4" d="M254.01,527.7c-0.01-0.01-0.01-0.01-0.01-0.01S254,527.69,254.01,527.7z"/>
							<path class="st4" d="M283.72,562.1c-4.47-4.81-2.37-2.01-3.47-2.89c-2.73-2.83-3.26-3.57-3.35-3.84
								c-0.09-0.27,0.27-0.07-0.55-1.14c-1.65-1.81-3.17-3.36-4.57-4.8c-1.39-1.46-2.62-2.85-3.79-4.25
								c-0.13-0.25-0.57-0.81,0.03-0.22c-0.89-0.95-1.95-2.16-3.1-3.51c-1.13-1.37-2.34-2.91-3.58-4.45
								c-2.5-3.07-4.95-6.31-6.92-8.61c-0.24-0.38-0.36-0.58-0.4-0.68c0.44,0.89,0.38,1.12,0.15,1.05
								c-0.89-1.18-1.77-2.24-2.47-3.13c-0.69-0.91-1.22-1.65-1.45-2.17c1.05,1.47,1.22,1.54,1.78,2.18l-1.89-2.45
								c-1.34-2.47,2.55,3.37,2.79,3.19c-3.67-4.79-7.99-10.35-10.5-14.25c-0.27-0.99,6.23,8.84,2.97,3.59c0,0,0.98,1.5,2.01,2.96
								c1.02,1.47,2.04,2.94,2.04,2.94c-2.76-4.75,2.51,3.55,0.04-0.86c-2.72-3.84-4.24-5.98-5.76-8.12
								c-1.53-2.14-3.06-4.27-5.59-8.23c-1.32-1.66,0.15,0.74-1.17-0.92c-1.92-2.73-3.15-4.71-4.05-6.23
								c-0.9-1.52-1.45-2.59-1.95-3.57c-1.01-1.94-1.75-3.53-4.5-7.6c-0.76-1.03-1.36-1.69-2.2-2.87c-0.82-1.18-1.85-2.89-3.49-5.98
								l1.52,1.87c-4.51-7.92-3.07-4.24-7.6-12.64c0.98,1.4,3.68,6.15,3.03,4.93c-1.41-2.76-2-3.68-2.54-4.42
								c-0.54-0.75-1.04-1.31-2.14-3.42l-0.16-1.03c-2.32-4.26-4.77-8.74-7.27-13.33c-2.46-4.61-4.83-9.43-7.25-14.23
								c0.35,0.49,1.26,2.1,0.25-0.21c-6.1-12.11-12.13-26.28-17.01-38.42c0,0-0.56-1.12-1.12-2.24c-0.57-1.12-1.09-2.25-1.09-2.25
								c-0.43-1.08-0.68-2.05-0.16-0.91c-1.8-4.77-0.27-0.17-1.29-2.41c-1.1-2.69-1.27-3.62-0.5-1.95
								c-0.89-2.07-1.96-4.58-3.13-7.31c-0.58-1.37-1.18-2.8-1.79-4.25c-0.58-1.47-1.18-2.97-1.77-4.47
								c-2.34-6.03-4.7-12.13-6.17-16.64l0.71,1.71c-2.4-6.99-3.4-7.63-5.47-14.17l0.5,1.22c-2.6-7.56-5.72-15.49-8.74-22.85
								c-0.72-1.85-1.44-3.67-2.13-5.46c-0.69-1.78-1.39-3.52-1.93-5.24c-0.56-1.72-1.11-3.38-1.63-4.97
								c-0.54-1.62-0.96-3.08-1.09-4.49c-0.08-0.26-0.15-0.69-0.22-1.24c-0.02-0.55-0.07-1.23,0.03-1.98
								c0.13-1.5,0.65-3.26,1.5-4.82c1.68-3.18,4.58-5.27,4.8-5.78c1.82-1.22,3.26-1.88,4.35-2.49c1.1-0.58,1.93-1.02,2.85-1.52
								c1.85-0.99,4.11-2.23,9.71-5.43c2.98-1.73,4.24-2.93,7.87-5.14l0.25,0.21l4.81-3.22l2.84-1.25l3.4-2.1
								c-1.38,0.79-2.98,1.6-2.82,1.4c2.65-1.65,5.95-3.53,8.62-5c2.67-1.47,4.7-2.52,4.8-2.49l12.58-7.73
								c-0.22,0.27-2.33,1.57-3.97,2.63c6.63-4.28,1.4-0.45,7.47-4.37c-0.87,0.43,0.36-0.42,0.47-0.56
								c3.19-1.67,10.25-5.83,15.43-8.98l-0.89,0.77c9.47-5.5,19.81-11.87,30.44-18.01c-1.96,1-2.73,1.37-2.66,1.19
								c0.08-0.17,1.01-0.86,2.59-1.72l1.42-0.41c1.94-1.29-3.35,1.7,0.7-0.81c4.04-2.17,2.88-1.15,0.63,0.2l4.82-2.77
								c0.33-0.07-0.79,0.6-1.03,0.87c0.95-0.64,3.09-1.72,5.34-2.87c0.56-0.29,1.13-0.59,1.68-0.88c0.56-0.29,1.13-0.53,1.66-0.79
								c1.07-0.51,2.02-1.01,2.72-1.44l0.32-0.05c2.75-1.33,5.13-2.47,7.29-3.51c1.08-0.52,2.1-1.02,3.09-1.5
								c0.99-0.48,1.98-0.86,2.93-1.27c3.83-1.62,7.41-3.13,12-5.07c0.06-0.39,3.75-1.65,6.47-2.87c3.47-1.19,7.13-2.45,10.98-3.73
								c3.9-1.13,7.97-2.33,12.19-3.64c5.9-1.94,1.66-0.79,4.3-1.71c0.51,0.13,9.05-2.11,4.67-0.78c5.13-1.34,8.39-2.25,12.02-3.15
								c3.64-0.84,7.63-1.76,14.17-3.27c-1.44,0.21-3.05,0.51-2.24,0.24c1.19-0.28,2.55-0.55,3.57-0.72
								c1.03-0.15,1.72-0.19,1.56-0.11l-0.63,0.14c14.73-3.19,34.47-4.88,46.27-7.26l-0.66,0.13l12.28-2.16
								c5.68-0.82-3.37,0.71,0.85,0.23c13.23-2.46,21.01-3.15,31.92-5.11c4.29-0.27,11.81-1.44,19.69-2.69
								c7.88-1.25,16.12-2.61,21.87-3.05l-0.68-0.1c2.94-0.52,3.59-0.32,5.77-0.54c-0.32-0.1-3.23,0.22-1.4-0.09
								c1.55-0.18,3.16-0.44,4.69-0.55c1.52-0.14,3.04-0.06,4.54,0.13c2.99,0.43,5.88,1.62,8.17,3.61c2.33,1.94,4.06,4.6,5.21,7.49
								c1.13,3.01,2.2,6.14,3.3,9.21c2.1,6.21,4.1,12.48,6.02,18.77c1.94,6.28,3.88,12.54,5.8,18.75c2.79,9.06,2.57,4.84,5.6,16.42
								l-1.29-3.16c5.96,18.2,10.79,37.63,15.25,55.82c-0.32-1.07-0.42-1.08-0.82-2.87c0.31,1.96,1.11,5.53,1.85,8.61
								c0.38,1.54,0.74,2.96,1,4c0.25,1.04,0.44,1.7,0.49,1.71c0.55,2.87-0.04,0.7,0.21,2.48c0.62,3.92,2.3,9.7,2.38,11.83
								c0.02,0.36-0.27-1.08-0.41-1.8c0.56,2.52,2.05,11.87,1.9,9.38c0.28,1.73,0.56,3.43,0.83,5.09c0.25,1.66,0.5,3.28,0.74,4.85
								c0.49,3.15,0.94,6.12,1.27,8.9c0.78,3.59,1.32,11.97,1.91,13.07c-0.47-0.46,1.05,12.3,1.76,16.71
								c-0.3-1.47,0.29,3.86-0.09,2.15c0.59,5.05,1.21,9.67,1.34,8.76c0.07,1.17,0.16,2.34,0.27,3.5l0.07,0.75l0.01,0.19l0.04,0.37
								c0,0.05,0.04,0.17,0,0.15l-0.15-0.09l-0.32-0.18l-0.18-0.1l-0.65-0.43c-0.45-0.29-0.89-0.58-1.33-0.87
								c-3.49-2.32-6.58-4.38-8.82-5.97c-1.71-0.95-3.57-1.64-5.35-2.24c-0.9-0.29-1.77-0.66-2.68-0.89
								c-0.91-0.24-1.81-0.48-2.71-0.71c-0.45-0.11-0.9-0.24-1.35-0.34l-1.37-0.24c-0.91-0.16-1.82-0.31-2.72-0.47
								c-0.91-0.14-1.83-0.16-2.74-0.24c-0.91-0.05-1.82-0.18-2.72-0.16c-7.16-0.11-14.17,0.69-20.79,2.58
								c0.09-0.13,1.05-0.5,2.45-0.86c0.71-0.15,1.52-0.33,2.38-0.51c0.86-0.17,1.77-0.39,2.68-0.48c3.64-0.57,7.17-0.71,6.87-0.94
								c-6.54,0.46-11.64,1.59-16.53,3.21c-4.86,1.7-9.57,3.84-14.98,7.43c-2.85,1.8,1.48-1.21,2.4-1.9
								c-5.56,3.51-10.34,7.78-14.32,12.46c-3.98,4.68-7.18,9.76-9.72,14.96c-0.03-0.05,0.53-1.17,1.07-2.22
								c-1.14,2-2.44,4.68-2.16,4.54l0.9-2.01c1.82-3.12-3.32,8.37-3.35,8.81c1.13-3.72-5.02,10.15-3.06,4.33
								c-0.61,1.36-1.32,3.09-1.05,2.84c-0.99,1.97-1.36,2.57-0.54,0.48c-3.38,7.36-1.99,4.84-5.09,11.48
								c-0.07-0.06,0.48-1.44,0.71-2.16c-1.38,3.45-2.7,6.94-5.31,12.56c0.1-0.37-0.27,0.26,0.49-1.43
								c-2.16,4.86-3.89,9.05-5.71,13.34c-0.46,1.07-0.91,2.15-1.38,3.25c-0.47,1.09-0.97,2.17-1.66,3.14
								c-0.67,0.98-1.59,1.78-2.76,2.2c-1.17,0.41-2.52,0.47-3.94,0.35c1.67-0.17,0.71-0.18-0.72-0.33
								c-1.43-0.19-3.49-0.4-3.77-0.62c0,0-1.58-0.15-3.16-0.24c-1.58-0.04-3.17-0.08-3.17-0.08l2.53,0.29
								c-1.38-0.05-2.73-0.09-4.04-0.14c-1.31-0.01-2.59,0.07-3.85,0.11c-0.63,0.02-1.25,0.04-1.86,0.06
								c-0.61,0.05-1.22,0.1-1.83,0.15c-1.21,0.1-2.4,0.18-3.59,0.25l4.09-0.47c0,0-0.65,0.05-1.62,0.13
								c-0.97,0.1-2.27,0.14-3.55,0.36c-1.28,0.19-2.57,0.38-3.53,0.52c-0.48,0.06-0.88,0.15-1.16,0.21
								c-0.28,0.06-0.44,0.09-0.44,0.09s0.36-0.07,0.9-0.16c0.54-0.09,1.28-0.15,2.01-0.24c1.46-0.17,2.92-0.33,2.92-0.33
								c-2.76,0.48-2.59,0.58-2.65,0.67c-0.03,0.04-0.11,0.09-0.65,0.18c-0.27,0.04-0.64,0.09-1.18,0.17
								c-0.54,0.08-1.23,0.24-2.13,0.4c0.73-0.17-0.62,0.11-2.51,0.47c-1.88,0.42-4.26,1.06-5.68,1.35c0,0,0.02-0.01,0.02-0.01
								c-1.27,0.51-2.56,1.02-4.01,1.56c-1.44,0.57-3,1.3-4.9,2.04c-1.02,0.31,0.61-0.71-0.05-0.51c-0.6,0.32-1.58,0.92-2.82,1.56
								c-0.62,0.32-1.29,0.68-1.99,1.05c-0.68,0.41-1.39,0.83-2.1,1.26c-0.71,0.43-1.43,0.86-2.13,1.28
								c-0.69,0.44-1.32,0.92-1.93,1.34c-1.2,0.87-2.26,1.6-2.87,2.2c0.85-0.76,0.82-0.91,0.47-0.74c0,0-0.11,0.09-0.27,0.23
								c-0.15,0.15-0.36,0.35-0.56,0.55c-0.41,0.4-0.82,0.8-0.82,0.8c-2.07,1.51-2.39,1.71-2.16,1.33c-2.97,2.46-2.39,2.2-2.01,1.97
								c0.4-0.2,0.61-0.34-2.84,2.65c0.49-0.52,0.22-0.31,1.31-1.33c-0.89,0.73-1.69,1.54-2.49,2.33c-0.8,0.8-1.59,1.59-2.38,2.37
								c-1.47,1.67-2.97,3.27-4.33,4.96c-2.73,3.36-5.29,6.74-7.68,10.2c-0.85,0.93,0.16-0.62,1.15-2.11
								c1.06-1.45,2.09-2.87,1.12-1.82c-3.56,4.94-6.86,10.32-9.69,15.88c-2.83,5.57-5.25,11.26-7.36,16.74c0,0,0.2-0.51,0.39-1.02
								c0.2-0.51,0.42-1.01,0.42-1.01c-0.09,0.84-0.85,2.88-1.89,5.4c-0.96,2.55-2.13,5.6-2.79,8.5c0.36-1.41,0.24-1.92,0.19-1.52
								c-0.56,1.93-1.18,3.87-1.65,5.93c-0.51,2.05-1.03,4.17-1.47,6.44c-0.96,4.53-1.78,9.61-2.57,15.64l0.07-1.51
								c-0.23,1.52-0.52,3.35-0.81,5.3c-0.38,1.83-0.93,3.87-1.46,5.82l-0.72,2.7l1.86-2.11c1.46-1.66,2.86-3.24,4.04-4.57
								c0.89-1.23,2.84-3.41,1.52-2.21c5.47-5.66,10.38-11.31,15.23-16.73c2.48-2.66,4.85-5.35,7.38-7.82
								c1.25-1.25,2.5-2.5,3.78-3.7c1.3-1.18,2.61-2.33,3.93-3.46c-1.21,1.14-2.81,2.8-1.85,1.89c0,0,0.53-0.51,1.34-1.28
								c0.81-0.76,1.85-1.82,2.97-2.78c2.21-1.97,4.42-3.94,4.42-3.94c-0.86,0.44-1.26,0.91-3.26,2.42c1.04-1.09,3.48-3.4,5.81-5.2
								c-4.07,3.46,0.27,0.26,2.15-1.08c-0.34,0.18,0.22-0.37,0.03-0.3c1.26-0.9,1.96-1.36,2.37-1.68c0.41-0.32,0.53-0.49,0.71-0.7
								c0.37-0.41,0.93-1.05,4.47-3.38l-0.31,0.34c1.31-0.89,2.56-1.76,3.84-2.63c0.64-0.44,1.29-0.88,1.96-1.33
								c0.67-0.45,1.4-0.83,2.15-1.25c0.68-0.23-0.03,0.21-0.93,0.75c-0.92,0.51-1.92,1.26-1.97,1.39c4.06-2.51,7.92-5.22,12-6.8
								c-1.8,0.97-4.47,2.17-6.17,3.3c2.11-1.06,3.35-1.53,4.4-2.02c1.05-0.49,1.97-0.92,3.55-1.67l-0.31,0.14
								c0,0,0.46-0.21,1.15-0.53c0.71-0.27,1.65-0.63,2.6-0.99c1.89-0.72,3.78-1.44,3.78-1.44l-1.94,0.69
								c2.62-1.53,5.57-2.37,8.71-3.41c0.39-0.13,0.79-0.25,1.19-0.38c0.41-0.1,0.83-0.2,1.24-0.31c0.84-0.21,1.7-0.42,2.58-0.64
								c0.44-0.11,0.88-0.23,1.33-0.34c0.39-0.11,0.79-0.22,1.2-0.33l0.64-0.18l0.33-0.1l0.17-0.05c0.04-0.02,0.04,0,0.03,0.03
								l-0.02,0.08c-0.09,0.42-0.19,0.85-0.28,1.28c0.09-0.42,0.17-0.79,0.24-1.12c0.02-0.08,0.03-0.15,0.05-0.22
								c0.03-0.06-0.03-0.02-0.07-0.01l-0.12,0.04c-0.16,0.05-0.3,0.09-0.43,0.13c-0.52,0.17-0.85,0.27-1.06,0.35
								c-0.41,0.15-0.34,0.16-0.13,0.13c0.43-0.06,1.42-0.26,1.01-0.01c0.23-0.11,0.06,0.17,0.02,0.32
								c-0.06,0.17-0.12,0.34-0.18,0.5c-0.12,0.34-0.24,0.68-0.34,0.96c-0.3,0.88-0.49,1.41-0.41,0.97
								c-0.81,3.75-1.92,6.1-3.05,11.39c-0.16,0.21-1.12,3.94-1.12,3.04c-1.28,4.81,0.48-1.09,0.49-0.65
								c-1.77,7.47-5.3,17.25-7.86,27.99c-2.41,9.21-2.57,10.99-4.82,19.54c-0.96,2.83,0.32-2.45,0.32-2.45
								c-1.45,4.59-2.41,8.08-3.53,12.47c0.17-0.91-0.16-0.02-0.64,1.28c-0.97,3.51-0.32,2.44-1.76,7.01
								c0.12-0.82,0.24-1.88,0.61-3.6c-1.05,4.16-2.09,8.26-3.18,12.56c-0.48,1.09,0.48-2.65,0.8-4.18
								c-1.28,4.82-3.37,12.47-3.53,14.03l0.96-3.05c-0.48,1.75-0.48,0.84-0.16-0.46c0.96-4.17,1.77-5.91,1.93-6.11l-0.8,3.06
								c1.43-2.97,3.37-12.24,5.13-18.35l-0.32,2.66l1.44-6.37c0.48-1.3,0.96-2.16,0.17,0.88c1.44-4.33,0.96-3.92,2.24-7.63
								c0.15-0.41,0.12-0.21,0.02,0.18l1.09-4.32c-0.15,0.86,0.48-0.63-0.32,1.98c2.41-7.63,3.21-12.49,4.33-15.3l-0.16,0.65
								c2.88-10.71,0-1.12,1.92-9.22l2.25-5.18l0-1.13c0.32-1.1,0.96-3.27,0.96-2.84c0.96-4.16-0.33,0.66,0.16-1.77
								c1.77-5.22,4.01-14.65,4.82-15.71c0.32-1.96-1.61,5.02-0.16-0.68c0.48-0.74,0.92-2.38,1.44-4.43
								c0.26-1.03,0.55-2.16,0.86-3.33c0.16-0.58,0.33-1.18,0.5-1.78c0.18-0.6,0.36-1.17,0.59-1.89c-0.02,0.2-0.07,0.48-0.14,0.79
								c-0.06,0.26-0.12,0.55-0.18,0.84c-0.14,0.57-0.28,1.14-0.37,1.5c-0.18,0.74-0.14,0.68,0.66-1.71c0.03-0.2,0.05-0.38,0.1-0.63
								c0.06-0.27,0.12-0.56,0.19-0.86c0.14-0.59,0.3-1.21,0.48-1.88c0.05-0.17,0.09-0.34,0.14-0.51c-0.13,0-0.34,0.08-0.51,0.11
								c-0.36,0.08-0.72,0.17-1.09,0.25c-0.72,0.16-1.46,0.32-2.21,0.49c-1.28,0.27-2.6,0.55-3.85,0.81
								c-1.26,0.25-2.41,0.68-3.43,1.01c-0.04,0.22-2.25,0.91-5.25,1.96c-2.94,1.22-6.77,2.58-9.91,4.29
								c0.09-0.08-0.63,0.24-1.85,0.8c-0.6,0.29-1.36,0.59-2.16,1.03c-0.8,0.44-1.68,0.92-2.61,1.43c-0.93,0.51-1.91,1.05-2.91,1.59
								c-1,0.53-1.94,1.19-2.9,1.77c-0.95,0.59-1.87,1.17-2.73,1.71c-0.87,0.53-1.67,1.04-2.34,1.53l0.12-0.16
								c-0.42,0.53-2.02,1.78-4.02,3.28c-1.02,0.73-2.06,1.6-3.12,2.46c-1.06,0.86-2.11,1.73-3.08,2.51
								c0.01-0.29,0.66-0.92,2.71-2.69l-3.67,2.94c-0.77,0.81-1.82,1.83-4.09,3.86l0.71-0.98c-4.72,4.11-9.05,8.74-14.78,14.36
								c-0.12,0.5,4.91-4.11-0.81,2.13c-0.32,0.13-0.71,0.2,0.79-1.45c-0.49,0.54-1.71,1.95-2.76,2.97l2.17-2.61
								c-2.6,2.57-1.18,1.51-3.21,3.62c-0.1-0.18-1.56,1.49-1.4,1.08c0.49-0.57,1.78-1.82,2.51-2.67c-2.3,2.36-5.05,5.24-6.06,6.1
								c0.28-0.13,0.18,0.17-1.4,1.98c-4.14,4.66-1.6,1.43-4.1,4.08c-0.9,1.22-3.63,4.11-3.48,4.39c-1.21,1.37-1.53,1.53-2.06,2.01
								c-1,1.24-3.4,4.01-5.27,6.2c0.4,0.21,0.77,0.4,1.14,0.6c0.73-2.88,1.2-4.99,0.6-3.23l-0.23,0.79
								c0.04-0.15,0.08-0.33,0.12-0.51c-0.01,0.03,0,0-0.01,0.03l0.01-0.03c0.16-0.63,0.29-1.3,0.42-1.97
								c0.14-0.67,0.27-1.33,0.33-2c0.18-1.33,0.36-2.67,0.54-4.01c0.18-1.34,0.44-2.68,0.66-4.03c0.23-1.35,0.47-2.69,0.75-4.03
								c1.03-5.37,2.39-10.66,3.7-15.71l0.09,0.04c0.41-1.5,0.82-3.1,1.3-4.69c0.5-1.59,1-3.19,1.49-4.74
								c0.53-1.53,1.05-3.02,1.53-4.38c0.46-1.37,0.96-2.58,1.32-3.64c0.67-1.73,1.87-3.94,1.66-3.17c1.9-4.36,1.97-4.94,5.36-10.93
								c-1.08,2.14-0.85,1.79-0.75,1.63c0.11-0.16,0.04-0.16-1.43,2.77c2.9-5.46,3.75-6.58,7.03-12.36
								c-0.53,1.01,0.19,0.08,1.23-1.4c0.51-0.75,1.12-1.62,1.7-2.47c0.6-0.83,1.17-1.63,1.6-2.22c0,0-0.68,0.84-1.36,1.69
								c-0.35,0.41-0.66,0.86-0.9,1.19c-0.24,0.33-0.4,0.54-0.4,0.54c0.88-1.4,1.83-2.62,2.72-3.83c0.89-1.21,1.76-2.38,2.72-3.49
								l-0.74,1.44c4.04-4.85,7.78-9.1,11.57-12.82c3.78-3.71,7.75-6.72,11.93-9.05c1.38-0.92-0.16-0.17-1.61,0.82
								c-1.47,0.95-2.99,1.93-1.84,0.97c1.22-0.79,2.41-1.65,3.66-2.31c1.24-0.66,2.44-1.3,3.52-1.88c2.24-1.02,4.04-1.79,4.85-2.19
								c1.84-0.73,3.16-1.3,4.25-1.8c1.1-0.45,1.97-0.8,2.84-1.18c1.73-0.78,3.57-1.46,7.61-2.39c-1.06,0.1-2.14,0,3.96-1.37
								c5.8-0.77,7.15-0.46,3.53,0.11c-1.38,0.2-2.05,0.26-1.99,0.21c-0.46,0.08-0.96,0.16-1.41,0.23
								c-0.44,0.11-0.84,0.21-1.12,0.28c-0.54,0.15-0.57,0.2,0.56,0.03c0,0,0.18-0.07,0.36-0.13c0.18-0.07,0.36-0.12,0.36-0.12
								c0.71-0.08,1.75-0.2,2.86-0.33c1.11-0.14,2.31-0.3,3.37-0.33c2.11-0.12,3.63-0.19,2.71-0.03c1.09-0.13,1.75-0.15,2.08-0.18
								c0.33-0.03,0.32-0.05,0.08-0.07c-0.24-0.01-0.72-0.05-1.35-0.02c-0.62,0.03-1.38,0.07-2.19,0.12c0.93-0.05,1.8-0.1,2.64-0.14
								c0.84,0,1.64-0.01,2.42-0.01c1.56-0.02,3.01-0.05,4.48,0.04c1.46,0.08,2.94,0.07,4.51,0.24c1.59,0.17,3.24,0.33,5.19,0.57
								c-1.25-0.2-2.32-0.44-1.12-0.32c2.82,0.41,4.72,0.36,5.93,0.05c1.2-0.31,1.72-0.64,2.07-0.91c0.36-0.26,0.6-0.48,1.09-1
								c0.49-0.52,1.21-1.4,2.09-3.17c2.01-3.93-0.23,1.6,2.81-5.52c2.04-4.26,0.7-0.78,0.02,0.97c2.67-6.52,5.52-11.95,7.2-15.6
								l-1.43,3.42c0.85-2.05,1.6-3.71,2.35-5.39l-1.08,1.83c0.93-1.97,1.68-3.65,1.75-3.57c0.78-2.11-1.06,1.4,0.56-2.75
								c1.29-2.6,3.68-8.04,4.38-8.81c-4.03,8.18,0.72-0.77-2.56,6.21c0.61-1.36,1.39-3,2.37-4.95c0.17-0.28-0.07,0.31-0.31,0.85
								c4.02-7.75,1.41-3.77,5.32-11.93c-0.34,1.11,1.21-1.74,1.81-3.09c-1.58,3.28-1.02,1.44,0.3-1.64
								c1.32-2.58,1.95-4.03,2.48-5.14c0.55-1.09,0.92-1.89,1.65-3.21l-1.71,2.99c0.42-1.09,1.72-3.68,3.88-7.08
								c0.3-0.21-1.86,3.14-1.04,1.96c2.02-4.01,5.84-8.21,10.05-12.71c2.15-1.89,0.42,0.04,2.32-1.6c0.62-0.59,1.16-1.14,1.69-1.58
								c0.54-0.42,1.03-0.8,1.48-1.15c0.91-0.67,1.64-1.28,2.48-1.74c0.81-0.5,1.64-1,2.63-1.63c1.01-0.59,2.24-1.24,3.79-2.16
								c-0.96,0.4-1.52,0.65-1.29,0.48c0.11-0.09,0.43-0.28,0.98-0.63c0.55-0.35,1.41-0.73,2.54-1.32c0,0-0.68,0.32-1.69,0.79
								c-1.02,0.47-2.28,1.27-3.59,1.98c-0.66,0.35-1.26,0.79-1.85,1.18c-0.58,0.39-1.12,0.76-1.58,1.07
								c-0.46,0.31-0.85,0.57-1.1,0.78c-0.25,0.2-0.4,0.32-0.4,0.32s0.09-0.08,0.25-0.21c0.17-0.13,0.38-0.35,0.67-0.55
								c0.58-0.42,1.36-0.98,2.14-1.55c0.39-0.28,0.78-0.56,1.15-0.83c0.38-0.23,0.74-0.45,1.05-0.64c0.62-0.38,1.03-0.63,1.03-0.63
								c-0.79,0.44-1.62,0.87-2.39,1.36c-0.76,0.52-1.51,1.03-2.22,1.52c-0.36,0.24-0.7,0.48-1.04,0.71
								c-0.32,0.25-0.62,0.49-0.91,0.72c-0.58,0.46-1.1,0.86-1.53,1.19c2.78-2.4,2.52-2.13,1.03-1.22c4.17-2.67,8.13-5.65,13.62-7.5
								l0.05,0.61c1.01-0.34,2-0.68,2.96-1c0.98-0.28,1.95-0.55,2.91-0.82l1.44-0.42l1.46-0.32c0.98-0.22,1.97-0.44,2.98-0.66
								c4.07-0.67,8.53-1.2,14.13-0.98l-3.6-0.12c0.75-0.09,2.49-0.18,4.47-0.04c0.99,0.09,2.04,0.19,3.07,0.28
								c1.03,0.07,2.02,0.34,2.92,0.46c-0.18,0.07,0.28,0.22,0.96,0.41c0.34,0.09,0.75,0.2,1.15,0.31c0.4,0.14,0.8,0.28,1.17,0.41
								c-0.04-0.05,0.44,0.06,1.18,0.26c0.74,0.21,1.78,0.42,2.79,0.82c1.03,0.36,2.1,0.73,2.98,1.01c0.87,0.3,1.51,0.56,1.79,0.57
								c0,0,0.28,0.13,0.68,0.37c0.4,0.24,0.92,0.56,1.45,0.89c1.03,0.7,2.05,1.4,2.05,1.4c1.89,1.26,3.37,2.25,4.65,3.1
								c0.65,0.41,1.25,0.79,1.82,1.16c0.6,0.37,1.18,0.72,1.75,1.07c0.75,0.46,1.5,0.91,2.28,1.38c0.64,0.27,1.91,1.59,1.37-0.09
								c-0.13-0.99-0.27-2.05-0.43-3.23c-0.11-0.91-0.23-1.92-0.36-3.04c0.26,1.3,0.31,0.96,0.4,1.01c0.04,0.03,0.1,0.16,0.19,0.65
								c0.05,0.27,0.1,0.52,0.18,1.08c0.1,0.73,0.22,1.65,0.38,2.81c-0.21-1.87-0.42-3.65-0.57-4.97c-0.13-1.02-0.23-1.69-0.3-1.7
								c-0.07-1.72-1.21-8.04-1.32-10.74c-0.22-1.22-0.48-1.6-0.83-4.87c0-0.36,0.1,0,0.1,0c-0.1,0-0.71-5.11-0.6-2.22
								c-0.36-9.05-2.99-25.07-3.71-32.92c-0.25-1.58-0.51-3.25-0.77-4.94c-0.31-1.69-0.62-3.41-0.94-5.11
								c-0.62-3.4-1.23-6.73-1.75-9.59c0.13,0.36,0.11,0,0.28,1.09c-1.36-7.91-1.51-4.73-3.09-13.72c-0.61-4.64,1.12,4.71,0.67,1.84
								c0.46-1.39-2.43-10.74-3.39-16.82l0.36,1.44c-0.38-2.32-1.17-5.08-2.01-8.21c-0.83-3.13-1.76-6.61-2.75-10.32
								c0,0,0.15,0.35,0.11,0.02c-0.83-2.49-1.91-6.13-3.03-10.04c-1.16-3.89-2.39-8.04-3.45-11.57c0.87,2.14,1.04,3.19,0.91,1.77
								c-0.94-3.17-0.13,1.04-2.01-5.28c-0.48-2.09-1.74-6.69-1.66-7.37l1.81,5.96c-0.58-3.16-2.33-7.72-3.22-10.87l0.27,0.35
								c-2.89-9.1-3.32-9.1-6.39-18.88l0.21,1.04c-2.07-5.21-1.22-4.54-3.19-9.77l-0.14-1.73c-1.19-3.5-4.33-12.21-6.58-18.45
								c0.8,1.71,1.77,4.42,2.83,7.24c1.06,2.82,2.11,5.78,2.91,8.05c-1.07-3.5-3.94-11.83-4.72-13.58c0.5,1.39,1.19,3.12,1.59,4.53
								c-1.69-4.19-3.8-9.7-6.42-16.55c0.3,0.23,0.03-0.8-0.84-2.45c-0.86-1.65-2.46-3.86-4.76-5.68c-2.3-1.81-5.26-3.08-7.96-3.55
								c-2.7-0.53-5.07-0.44-6.45-0.48c-3.21,0.45-6.41,0.86-9.64,1.24c-3.22,0.44-6.46,0.89-9.77,1.34
								c-6.61,0.93-13.48,1.9-20.91,3.06c5.37-0.22-4.34,0.68-3.33,1.15c-3.46,0.57-4.78,0.76-5.1,0.77l-10.55,1.25
								c-2.52,0.21,3.27-0.64,2.93-0.72c-7.59,1.11-3.22,0.23-8.26,0.84c1.06,0.06-2.59,0.71-6.93,1.29l6.13-0.65
								c-10.55,1.94-9.24,0.89-19.88,2.85l3.35-0.71c-5.46,0.95-20.23,3.09-25.52,4.4c-0.98,0.08-2.29,0.11,0.12-0.3
								c-13.11,1.89-29.1,5.04-39.23,7.02l0.95-0.36c-2.42,0.57-4.16,1.19-7.22,1.7c0.14-0.09,0.94-0.36-0.18-0.12
								c-0.64,0.16-2.23,0.56-4.07,1.02c-1.83,0.5-3.89,1.08-5.49,1.45l2.68-0.87c-3.15,0.77-5.92,1.49-8.47,2.18
								c-1.27,0.35-2.49,0.69-3.68,1.02c-1.19,0.33-2.33,0.67-3.44,1.07c-4.47,1.52-8.67,3-13.84,4.64
								c-0.13-0.5-9.77,2.87-14.6,4.51l0.15-0.12c-0.89,0.32-1.76,0.63-2.62,0.94c-0.84,0.35-1.67,0.7-2.48,1.04
								c-1.62,0.69-3.19,1.36-4.73,2.01c-3.06,1.32-5.98,2.57-8.84,3.86c-2.8,1.41-5.58,2.81-8.43,4.25
								c-1.43,0.72-2.87,1.44-4.35,2.19c-0.74,0.37-1.49,0.74-2.25,1.12c-0.74,0.42-1.49,0.84-2.25,1.27
								c-1.96,0.94-4.56,2.28-7.55,3.86c-1.49,0.8-3.08,1.65-4.75,2.54c-1.66,0.9-3.32,1.92-5.05,2.92
								c-6.89,4.04-14.33,8.43-20.39,11.85c1.87-1.01-0.12,0.47-2.23,1.77c-2.86,1.58-7.62,4.85-7.37,4.24l1.01-0.58
								c-2.32,0.91-8.04,4.41-12.56,7.06l-0.48,0.89c-12.19,6.3-30.77,18.49-37.56,21.69c-2.78,1.79-6.31,3.87-9.06,5.65l0.01-0.33
								c-3.96,2.3-6.93,4.03-10.13,5.89c-1.56,0.91-3.37,1.93-5.11,3.45c-1.74,1.5-3.5,3.51-4.76,6.34c0,0,0.04-0.15,0.14-0.37
								c0.09-0.22,0.21-0.51,0.33-0.81c0.11-0.3,0.27-0.57,0.37-0.79c0.11-0.21,0.18-0.35,0.18-0.35c-0.95,1.47-1.47,2.84-1.75,4.07
								c-0.31,1.22-0.35,2.33-0.34,3.38c0.07,2.1,0.47,4.13,1.46,6.95l0.18,1.81c3.49,10.68,7.97,21.06,11.99,31.23
								c-0.12-0.15-0.35-0.41-1-2.08c1.85,4.87,6.65,19.17,6.57,17.17c-0.14,0.12,0.79,2.84,2.12,6.2
								c1.36,3.35,3.01,7.38,4.14,10.16l-0.59-0.78c1.07,2.31,1.64,3.5,2.27,4.93c0.63,1.43,1.31,3.11,2.69,6.38
								c0.59,1.58,0.34,1.45-0.42-0.65c1.95,5.25,1.87,3.95,4.26,10.32l-1.11-2.28c2.13,5.36,2.04,4.9,3.42,7.77
								c1.53,3.29,4.23,10.09,4.33,10.97c0.45,0.66,1.88,3.48,3.14,6.63c0.09,0.46-0.45-0.65-0.72-1.21
								c3.73,8.9,6.23,12.92,8.71,19.08c-0.03,0.16,0.11,0.58,0.31,1.09c-3.18-6.97-5.73-12.59-5.47-12.07
								c-0.23,0.1,2.3,5.76-0.07,1.42c1.12,2.22,2.64,5.23,4.22,8.36c1.51,3.16,3.27,6.34,4.52,9.09c0.11,0.27,0.21,0.54,0.27,0.75
								l-0.3-0.55c0.59,1.26,1.16,2.37,1.72,3.41c0.81,1.75,1.32,2.86,2.14,4.52c0.07,0.37,0.81,1.98,1.74,3.83
								c0.98,1.83,2.09,3.92,2.82,5.28c0.13-0.35,1.98,3.24,0.42-0.22c0.21,0.44-0.3-0.5-1.27-2.31c-0.23-0.41-0.49-0.88-0.64-1.15
								c0.03,0.05,0.08,0.11,0.12,0.17c-0.98-1.77-2.15-4.14-3.47-6.84c1.21,2.12,2.4,4.37,3.89,7.44c0.9,1.32,1.88,2.77,2.42,3.6
								c1.64,3.9,5.23,11.22,5.61,12.31c2.4,4.06,5.22,8.85,7.82,13.25c0.66,1.1,1.3,2.17,1.92,3.21c0.65,1.01,1.28,1.98,1.87,2.9
								c1.2,1.82,2.27,3.4,3.15,4.6c1.46,2.25,1.51,2.69,1.97,3.58c-0.88-1.28-1.85-2.84-2.34-3.52c1.46,2.25,3.61,5.58,5.49,8.48
								c1.89,2.89,3.61,5.3,4.11,5.73c3.59,5.72-2.39-2.97,2.8,4.72l-0.8-0.97c4.89,7.71,9.37,13.66,14.15,19.66
								c1.19,1.5,2.4,3.01,3.63,4.56c1.25,1.54,2.52,3.11,3.85,4.74c2.6,3.3,5.47,6.78,8.57,10.78c-0.86-1.11-1.3-1.66-1.43-1.92
								c7.3,8.94,15.42,17.66,23.92,25.91c8.48,8.28,17.45,15.99,26.26,23.22c2.51,2.05,3.94,3.13,5.19,3.93
								c1.24,0.81,2.22,1.44,3.88,2.52l0.95,1.07c0,0,0.35,0.23,0.88,0.58c0.53,0.35,1.23,0.81,1.97,1.24
								c1.45,0.88,2.9,1.75,2.9,1.75c2.03,1.28,3.84,2.59,5.67,3.8c1.83,1.22,3.62,2.42,5.48,3.66c0.94,0.61,1.86,1.28,2.87,1.88
								c1.01,0.59,2.05,1.21,3.14,1.84c1.09,0.63,2.23,1.27,3.44,1.93c0.6,0.33,1.22,0.67,1.86,0.99c0.65,0.31,1.32,0.62,2.01,0.94
								l-1.3-0.89c1.94,0.98,5.02,2.54,7.54,3.81c2.53,1.23,4.54,2.09,4.15,2.06c0.42,0.15,1.39,0.4,2.9,1.19l0.06,0.2
								c0,0,0.62,0.26,1.54,0.65c0.92,0.41,2.17,0.87,3.44,1.33c2.51,0.92,5.03,1.84,5.03,1.84c0.96,0.4,1.65,0.7,2.17,0.92
								c0.52,0.2,0.84,0.34,1.05,0.45c0.41,0.21,0.35,0.26,0.39,0.36c0.1,0.19,0.65,0.52,6.4,2.47c1.07,0.37,2.4,0.7,3.75,1.02
								c1.35,0.32,2.73,0.64,3.92,0.92c2.38,0.54,4,0.86,3.2,0.58c-1.75-0.5-4.45-1.34-4.54-1.53l3.98,1.02
								c0.84-0.25,3.96,0.12-5.6-2.88c0,0-0.43-0.1-1.06-0.25c-0.63-0.16-1.5-0.32-2.33-0.58c-1.68-0.49-3.36-0.98-3.36-0.98
								l-2.06-0.93l5.58,1.86c-3.09-1.27-5.15-1.76-7.44-2.4c-0.49-0.29-1.4-0.67-2.66-1.24l-6.55-2.11c-0.7-0.47,3,0.79-1.24-0.99
								c-3.01-1.13,2.65,1.65-2.26-0.42c-2.97-1.57-2-1.33-5.66-2.78c-0.45-0.34,0.34-0.06,1.78,0.53
								c-0.81-0.33-1.75-0.72-2.72-1.15c-0.97-0.43-1.94-0.95-2.89-1.4c-1.89-0.93-3.59-1.75-4.45-2.05
								c-1.52-0.86-4.09-2.32-6.24-3.54c-2.15-1.22-3.87-2.23-3.61-2.33c-1.03-0.41-5.42-2.93-8.17-4.6
								c1.32,0.66,1.34,0.6,0.66,0.13c-0.68-0.47-2.09-1.31-3.54-2.33c-2.93-2-6.3-4.31-5.5-4.1c-0.98-0.5-2.25-1.33-3.72-2.36
								c-1.48-1.02-3.15-2.23-4.91-3.5c-1.78-1.25-3.53-2.71-5.3-4.04c-1.74-1.37-3.49-2.63-5-3.83c0.35,0.25,1.04,0.74,1.57,1.17
								c-3.33-2.78-4.17-3.73-6.25-5.58c-0.33-0.04-1.84-1.08-3.54-2.5c-1.71-1.4-3.7-3.07-5.14-4.2c-3.7-3.83,2.71,1.82,1.71,0.43
								c0,0.2-1.8-1.25-3.38-2.66c-1.58-1.41-3.02-2.69-2.45-1.97c-2.78-2.98-2.46-2.5-3.74-4.18c-0.86-0.14-2.72-2.63-5.3-4.81
								c-3.95-4.36-0.75-1.38-5.28-5.99C279.68,558.01,283.72,562.1,283.72,562.1z M198.28,434.96L198.28,434.96
								c0.6,1.18,1.1,2.2,1.42,2.84C199.4,437.21,198.99,436.39,198.28,434.96z M192.75,423.26c0.65,1.43,1.46,3.22,2.32,5.11
								c0.1,0.45-0.19,0.05-0.73-1.14C194.7,427.85,193.48,425.05,192.75,423.26z M202.9,448.8c-0.95-1.82-1.2-2.47-1.27-2.75
								c0.44,0.86,0.92,1.89,1.63,3.2c0.04,0.05,0.11,0.15,0.14,0.2C203.27,449.3,203.12,449.13,202.9,448.8z"/>
							<path class="st4" d="M204.96,451.89c0.15,0.26,0.23,0.4,0.41,0.74c-0.18-0.38-0.35-0.74-0.52-1.11
								c-0.14-0.21-0.29-0.42-0.42-0.6C204.62,451.25,204.8,451.59,204.96,451.89z"/>
							<path class="st4" d="M342.44,581.98l0.08-0.26c-0.07,0.22-0.13,0.41-0.18,0.54C342.4,582.1,342.4,582.09,342.44,581.98z"/>
							<polygon class="st4" points="175.98,271.5 175.93,271.45 174.98,272.08 							"/>
							<path class="st4" d="M389.17,537.03c0.12-0.07,0.35-0.21,0.77-0.53C389.9,536.51,389.57,536.75,389.17,537.03z"/>
							<path class="st4" d="M415.27,521.05c-0.03-0.08,4.03-1.58,4.03-1.58C417.55,520.13,416.25,520.55,415.27,521.05z"/>
							<path class="st4" d="M436.75,514.08c0.21-0.1,0.31-0.16,0.4-0.22l-0.02,0L436.75,514.08z"/>
							<path class="st4" d="M486,406.61c0.15-0.29,0.3-0.57,0.43-0.82C487.42,403.86,486.73,405.16,486,406.61z"/>
							<path class="st4" d="M413.49,471.12c1.13-0.39,2.26-0.73,3.46-1.1C415,470.54,413.49,470.93,413.49,471.12z"/>
							<path class="st4" d="M575.85,372.07c0,0.01,0,0,0.01,0.01c-0.03-0.27-0.06-0.5-0.09-0.77L575.85,372.07z"/>
							<path class="st4" d="M422.06,468.86c-1.98,0.36-3.63,0.66-5.12,1.16C418.53,469.55,420.45,469.25,422.06,468.86z"/>
							<path class="st4" d="M409.6,610.84l-0.32,1.09c0.02-0.01,0.02,0.06,0.01,0.14L409.6,610.84z"/>
							<path class="st4" d="M409.29,612.08l-0.31,1.23C409.13,612.75,409.27,612.26,409.29,612.08z"/>
							<path class="st4" d="M408.32,615.89l0.66-2.59C408.72,614.2,408.4,615.29,408.32,615.89z"/>
							<path class="st4" d="M418.27,580.69l0-0.37C418.23,580.51,418.23,580.64,418.27,580.69z"/>
							<path class="st4" d="M420.83,571.51c-0.64,2.18-1.76,5.43-2.56,8.5l0,0.31C418.53,578.84,420.41,573.64,420.83,571.51z"/>
							<path class="st4" d="M432.87,533.57l-2.25,7.66c0.48-1.31,1.12-3.04,0.16,0.46C433.84,532.1,429.98,543.63,432.87,533.57z"/>
							<path class="st4" d="M434.67,513.16c0.61-0.16,1.07-0.27,1.4-0.36c0.4-0.11,0.66-0.18,0.8-0.22c0.28-0.09,0.11-0.07-0.25,0
								c-0.37,0.07-0.91,0.18-1.34,0.26c-0.31,0.05-0.53,0.09-0.48,0.06C432.15,513.64,431.51,513.82,434.67,513.16z"/>
							<path class="st4" d="M356.94,528.34l0.06,0.5C358.32,525.82,356.92,528.76,356.94,528.34z"/>
							<path class="st4" d="M373.83,498.67l-2.17,2.41c0,0-0.2,0.33-0.39,0.68c-0.18,0.34-0.37,0.69-0.37,0.69
								c0,0,0.69-0.98,1.44-1.9C373.09,499.6,373.83,498.67,373.83,498.67z"/>
							<path class="st4" d="M389.38,485.79l-1.1,0.91c0,0,1.06-0.86,2.12-1.71c0.53-0.43,1.06-0.86,1.46-1.18
								c0.41-0.3,0.69-0.5,0.69-0.5s-0.21,0.14-0.51,0.36c-0.3,0.22-0.69,0.55-1.08,0.86C390.17,485.17,389.38,485.79,389.38,485.79
								z"/>
							<path class="st4" d="M574.15,337.19l-0.17,1.03C574.36,340.43,574.78,340.85,574.15,337.19z"/>
							<path class="st4" d="M543.31,211.15c-0.28-1.39-1.29-4.9-2.12-7C542.06,206.94,542.82,209.75,543.31,211.15z"/>
							<polygon class="st4" points="204.34,251.84 206.53,250.42 202.34,253 							"/>
						</g>
					</g>
				</g>
			</g>
		</g>
		<g>
			
				<linearGradient id="SVGID_00000089549345149579460390000005007190993820117673_" gradientUnits="userSpaceOnUse" x1="399.6987" y1="603.8673" x2="850.6453" y2="603.8673">
				<stop  offset="0.2363" style="stop-color:#1B1B1B"/>
				<stop  offset="0.4943" style="stop-color:#1B1B1B"/>
				<stop  offset="0.8335" style="stop-color:#545454"/>
				<stop  offset="0.9831" style="stop-color:#3E3E3E"/>
			</linearGradient>
			<path style="fill-rule:evenodd;clip-rule:evenodd;fill:url(#SVGID_00000089549345149579460390000005007190993820117673_);" d="
				M399.7,661.32c0.61-50.61,11.53-99.14,26.87-146.87c12.61-39.24,28.92-77,46.69-114.14c4.24-8.86,8.58-17.67,12.99-26.45
				c5.78-11.5,12.23-14.2,24.64-10.65c37.05,10.58,74.3,20.52,111.13,31.82c51.38,15.76,96.76,43.29,140.12,74.35
				c25.55,18.31,50.85,36.97,76.25,55.49c13.04,9.51,15.96,18.32,7.42,31.9c-31.62,50.25-56.45,104.67-93.68,151.47
				c-33.6,42.22-70.52,80.63-118.03,107.53c-37.61,21.29-77.6,32.45-121.17,29.86c-25.78-1.53-45.94-12.95-62.44-32.24
				c-26.86-31.4-41.65-67.97-46.88-108.6C401.74,690.37,400.96,675.81,399.7,661.32z M646.67,714.32c-2.42-0.12-3.52-0.38-4.55-0.2
				c-24.21,4.24-48.5,5.65-72.99,2.75c-24.02-2.84-44.92-11.98-62.43-29.04c-18.63-18.16-33.18-39.23-45.95-62.25
				c-0.44,1.09-0.89,1.69-0.91,2.3c-1.12,31.4,1.86,62.05,15.57,90.97c15.98,33.7,45.66,47.38,76.18,44.07
				C588.83,758.88,618.33,739.03,646.67,714.32z M622.21,595.17c18.21,49.68,68.14,68.4,109.31,53.92
				C711.35,594.82,671.06,582.74,622.21,595.17z M583.37,574.34c-24.54-50.9-58.79-64.34-108.27-51.53
				C496.21,572.96,541.19,591.39,583.37,574.34z"/>
			<g>
				<path class="st4" d="M399.7,661.32c0,0,0.2-5.63,0.58-16.17c0.03-2.64,0.35-5.57,0.61-8.81c0.27-3.23,0.57-6.76,0.89-10.57
					c0.12-1.91,0.42-3.88,0.68-5.91c0.26-2.04,0.54-4.15,0.82-6.32c0.28-2.18,0.57-4.42,0.87-6.73c0.13-1.16,0.32-2.33,0.53-3.5
					c0.2-1.18,0.41-2.38,0.62-3.59c3.11-19.46,8.3-42.87,16.09-69.19c3.98-13.14,8.26-27.1,13.6-41.56
					c5.28-14.47,11.14-29.57,17.78-45.11c6.64-15.54,13.88-31.58,21.76-48.02c1.99-4.1,3.99-8.23,6.01-12.39
					c1.01-2.08,2.02-4.17,3.04-6.27c0.51-1.05,1.02-2.1,1.53-3.15c0.55-1.11,1.05-2.09,1.67-3.16c1.21-2.12,2.61-4.12,4.42-5.87
					c1.78-1.75,4.08-3.12,6.57-3.74c2.49-0.65,5.06-0.63,7.53-0.33c1.24,0.14,2.45,0.4,3.66,0.66c1.2,0.31,2.4,0.61,3.55,0.94
					c18.65,5.15,37.82,10.44,57.41,15.85c9.77,2.8,19.65,5.62,29.63,8.47c4.99,1.43,10,2.86,15.03,4.3
					c2.52,0.72,5.04,1.44,7.57,2.16c2.51,0.79,5.03,1.59,7.56,2.39c10.08,3.31,20.13,7.06,30.03,11.28
					c9.9,4.25,19.7,8.92,29.38,13.95c9.7,5,19.2,10.5,28.63,16.21c9.42,5.73,18.75,11.71,27.94,17.96
					c9.19,6.23,18.33,12.69,27.33,19.25c9.03,6.56,18.09,13.13,27.16,19.72c9.07,6.59,18.17,13.19,27.27,19.8l6.83,4.96l3.41,2.48
					l1.71,1.24l0.43,0.31l0.47,0.36l0.84,0.64c1.1,0.8,2.29,1.84,3.42,2.81l1.62,1.55c0.54,0.52,1.03,1.12,1.55,1.67
					c1.99,2.3,3.76,5.04,4.68,8.19c0.95,3.15,0.89,6.57,0.14,9.61c-0.74,3.07-2.04,5.83-3.49,8.42l-1.13,1.91l-1.1,1.78l-2.22,3.59
					c-1.49,2.39-2.97,4.78-4.39,7.18c-5.81,9.57-11.4,19.31-16.96,29.04c-11.09,19.47-21.94,39.04-33.6,57.98
					c-11.6,18.95-24.01,37.3-37.79,54.26c-6.81,8.45-13.84,16.75-20.99,24.77c-7.16,8.03-14.45,15.84-22.01,23.27
					c-7.55,7.43-15.23,14.61-23.2,21.32c-7.97,6.7-16.1,13.06-24.45,18.93c-8.38,5.82-16.9,11.26-25.58,16.17
					c-8.66,4.89-17.54,9.28-26.49,13.06c-17.9,7.56-36.25,12.81-54.37,15.28c-9.05,1.26-18.03,1.9-26.84,1.99
					c-2.2-0.01-4.4-0.03-6.58-0.04c-2.18-0.09-4.35-0.19-6.51-0.28c-2.16-0.05-4.32-0.32-6.43-0.49c-1.06-0.12-2.13-0.29-3.19-0.43
					c-1.06-0.14-2.12-0.29-3.16-0.52c-1.04-0.2-2.08-0.41-3.12-0.61c-1.03-0.26-2.05-0.51-3.07-0.77l-1.53-0.39l-1.5-0.46
					c-1-0.32-2-0.6-2.98-0.94c-3.92-1.39-7.71-3-11.31-4.89c-3.57-1.93-7.03-3.99-10.22-6.35c-1.64-1.12-3.14-2.39-4.69-3.59
					c-1.49-1.27-2.97-2.52-4.38-3.84c-1.39-1.34-2.81-2.64-4.1-4.03c-0.66-0.69-1.31-1.38-1.97-2.06c-0.63-0.71-1.25-1.42-1.87-2.12
					c-1.27-1.39-2.41-2.87-3.59-4.29c-1.16-1.44-2.36-2.83-3.44-4.3c-1.1-1.46-2.19-2.9-3.28-4.34c-1.06-1.45-2.06-2.93-3.08-4.38
					c-0.51-0.73-1.01-1.45-1.51-2.17c-0.48-0.74-0.95-1.48-1.42-2.21c-0.94-1.47-1.87-2.93-2.79-4.38
					c-7.1-11.76-12.66-23.41-16.73-34.57c-4.12-11.15-6.95-21.72-8.94-31.36c-1.98-9.65-3.18-18.38-3.81-26.01
					c-0.74-7.62-1.44-14.09-1.8-19.36C400.14,666.93,399.7,661.32,399.7,661.32z M399.7,661.32c0,0,0.45,5.61,1.3,16.13
					c0.37,5.27,1.08,11.74,1.84,19.35c0.65,7.63,1.86,16.35,3.87,25.99c2.01,9.64,4.86,20.19,9,31.32c0.48,1.4,1.06,2.79,1.63,4.19
					c0.57,1.4,1.14,2.82,1.72,4.25c0.63,1.41,1.27,2.83,1.92,4.26c0.64,1.44,1.29,2.88,2.03,4.31c0.71,1.43,1.43,2.88,2.16,4.34
					c0.75,1.45,1.56,2.88,2.35,4.34c1.54,2.94,3.35,5.79,5.08,8.74c0.93,1.44,1.87,2.89,2.82,4.35c0.47,0.73,0.95,1.46,1.43,2.2
					c0.51,0.72,1.01,1.44,1.52,2.16c1.03,1.44,2.03,2.91,3.1,4.35c1.09,1.42,2.19,2.86,3.29,4.3c1.08,1.46,2.29,2.85,3.46,4.28
					c1.19,1.42,2.33,2.88,3.6,4.25c0.62,0.7,1.25,1.39,1.88,2.1c0.65,0.68,1.31,1.35,1.97,2.04c1.3,1.38,2.71,2.67,4.1,3.98
					c1.41,1.3,2.89,2.54,4.38,3.79c1.54,1.18,3.04,2.44,4.67,3.53c3.17,2.32,6.62,4.33,10.17,6.2c3.58,1.83,7.34,3.39,11.23,4.72
					c0.97,0.33,1.97,0.6,2.96,0.9l1.49,0.44l1.51,0.37c1.01,0.24,2.02,0.48,3.04,0.73c1.03,0.19,2.06,0.38,3.09,0.57
					c1.03,0.21,2.07,0.35,3.11,0.48c1.04,0.13,2.08,0.29,3.14,0.39c2.14,0.15,4.25,0.39,6.4,0.42c2.15,0.07,4.3,0.14,6.47,0.21
					c2.17-0.01,4.35-0.02,6.54-0.03c8.75-0.18,17.66-0.91,26.62-2.25c17.95-2.63,36.06-8.02,53.72-15.69
					c8.84-3.85,17.53-8.25,26.11-13.21c8.56-4.95,16.94-10.43,25.19-16.28c8.21-5.91,16.21-12.29,24.04-19.02
					c7.83-6.73,15.38-13.93,22.79-21.39c7.42-7.45,14.58-15.28,21.61-23.33c7.04-8.06,13.88-16.32,20.62-24.85
					c13.5-16.89,25.7-35.11,37.11-54.03c5.72-9.46,11.28-19.07,16.77-28.77c5.49-9.71,11-19.45,16.52-29.22
					c5.55-9.76,11.12-19.52,16.97-29.2c1.44-2.44,2.91-4.83,4.4-7.22l2.22-3.59l1.12-1.81l1.01-1.72c1.29-2.31,2.39-4.7,2.96-7.12
					c0.58-2.41,0.58-4.81-0.08-7.07c-0.66-2.26-1.98-4.39-3.65-6.33c-0.44-0.47-0.85-0.97-1.32-1.43l-1.42-1.37
					c-1.01-0.86-1.93-1.69-3.1-2.55l-0.84-0.64l-0.37-0.28l-0.43-0.31l-1.71-1.24l-3.41-2.49l-6.82-4.97
					c-9.09-6.63-18.17-13.25-27.23-19.86c-9.06-6.61-18.1-13.21-27.12-19.78c-8.99-6.64-17.99-13.09-27.11-19.34
					c-18.23-12.5-36.84-24.12-55.93-34.3c-9.54-5.08-19.2-9.81-28.96-14.12c-9.78-4.29-19.65-8.09-29.59-11.46
					c-2.5-0.82-4.99-1.63-7.48-2.45c-2.52-0.75-5.03-1.49-7.54-2.24c-5.01-1.49-10-2.97-14.97-4.45
					c-9.93-2.95-19.77-5.88-29.51-8.77c-19.53-5.61-38.64-11.1-57.24-16.44c-1.17-0.35-2.31-0.64-3.45-0.95
					c-1.14-0.25-2.29-0.51-3.43-0.65c-2.29-0.31-4.59-0.33-6.73,0.2c-4.37,0.99-7.57,4.65-9.82,8.55c-0.58,0.96-1.16,2.07-1.65,3.05
					c-0.52,1.05-1.04,2.09-1.56,3.14c-1.04,2.09-2.07,4.17-3.11,6.24c-2.06,4.14-4.11,8.25-6.14,12.33
					c-8.02,16.32-15.43,32.28-22.22,47.73c-6.79,15.45-12.82,30.47-18.16,44.9c-5.43,14.4-9.79,28.34-13.85,41.44
					c-1.96,6.57-3.71,12.98-5.47,19.14c-1.6,6.2-3.08,12.2-4.52,17.96c-1.3,5.79-2.44,11.37-3.59,16.69c-0.61,2.65-1,5.29-1.46,7.84
					c-0.45,2.55-0.88,5.04-1.3,7.47c-0.21,1.21-0.42,2.41-0.63,3.59c-0.22,1.18-0.41,2.34-0.54,3.5c-0.3,2.31-0.6,4.55-0.89,6.73
					c-0.29,2.17-0.56,4.28-0.83,6.32c-0.26,2.04-0.56,4-0.69,5.91c-0.33,3.81-0.63,7.34-0.91,10.57c-0.27,3.23-0.59,6.16-0.63,8.8
					C399.91,655.69,399.7,661.32,399.7,661.32z"/>
				<path class="st4" d="M646.67,714.32c-1.17-0.03-2.35-0.14-3.52-0.17c-0.58,0-1.15,0.09-1.73,0.2l-1.73,0.32l-6.94,1.26
					c-4.65,0.72-9.32,1.42-14,1.89l-3.51,0.4c-1.17,0.11-2.35,0.19-3.52,0.29c-2.35,0.17-4.7,0.41-7.05,0.51l-7.07,0.29
					c-2.36,0.08-4.72,0.03-7.08,0.06c-1.18-0.01-2.36,0.02-3.54-0.01l-3.54-0.13c-2.36-0.12-4.73-0.11-7.08-0.36l-7.07-0.6
					c-2.39-0.29-4.67-0.53-7.05-0.94c-4.72-0.76-9.37-1.75-13.96-3.1c-4.58-1.33-9.09-2.96-13.46-4.9
					c-4.36-1.97-8.59-4.24-12.65-6.78c-4.07-2.52-7.92-5.4-11.59-8.48c-1.87-1.53-3.56-3.13-5.39-4.82l-4.96-5.01
					c-1.68-1.63-3.26-3.43-4.86-5.2l-2.4-2.66l-1.2-1.33l-1.14-1.37l-4.54-5.48c-1.49-1.85-2.89-3.76-4.34-5.64l-2.15-2.83
					l-2.05-2.9c-1.35-1.94-2.77-3.85-4.07-5.83l-3.9-5.94c-1.31-1.97-2.49-4.03-3.74-6.04c-2.52-4.01-4.79-8.16-7.16-12.25
					l4.38-0.26c-0.18,0.41-0.38,0.88-0.53,1.18l-0.12,0.25l-0.05,0.13c-0.01,0.03-0.05,0.1-0.04,0.1c0.02-0.04,0.03-0.08,0.03-0.12
					c0-0.02,0-0.04-0.01-0.06l0,0.12l-0.01,0.29l-0.02,0.58l-0.03,1.17c-0.03,1.55-0.1,3.12-0.1,4.65l-0.03,4.61l0.05,4.62
					c0.12,6.16,0.43,12.31,1,18.44c0.58,6.12,1.41,12.21,2.55,18.24c1.11,6.04,2.63,11.98,4.43,17.83c0.87,2.94,1.93,5.81,2.96,8.69
					c1.14,2.84,2.24,5.69,3.54,8.47l0.94,2.1l1.03,2l2.13,4.15l2.33,3.83c0.4,0.63,0.74,1.29,1.2,1.9l1.32,1.84l1.32,1.84l0.66,0.92
					l0.73,0.87l2.92,3.47c1.01,1.12,2.11,2.16,3.16,3.24c1.02,1.11,2.19,2.07,3.34,3.05c4.56,3.93,9.6,7.34,15.09,9.86
					c5.45,2.58,11.23,4.46,17.18,5.6c5.96,1.13,12.06,1.39,18.13,1.06l2.28-0.15l1.09-0.07l1.16-0.15l4.63-0.58
					c0.78-0.08,1.53-0.21,2.28-0.35l2.25-0.41c1.5-0.29,3.01-0.5,4.5-0.89l4.49-1.06c1.49-0.37,2.96-0.84,4.44-1.26l2.21-0.65
					c0.74-0.22,1.46-0.5,2.19-0.74l4.36-1.51c2.85-1.18,5.75-2.23,8.54-3.55c1.4-0.65,2.83-1.24,4.21-1.93l4.14-2.08
					c5.47-2.87,10.85-5.96,16.02-9.38c2.63-1.65,5.14-3.47,7.71-5.21c2.5-1.84,5.05-3.61,7.5-5.53
					C637.04,722.2,641.87,718.27,646.67,714.32z M646.67,714.32c-2.33,2.07-4.6,4.19-6.97,6.21l-3.53,3.06l-3.6,2.98
					c-2.39,2-4.88,3.87-7.33,5.8c-2.52,1.84-4.98,3.76-7.57,5.51c-5.09,3.62-10.41,6.92-15.84,10.02
					c-5.44,3.1-11.12,5.78-16.92,8.19l-4.41,1.65c-0.74,0.27-1.47,0.57-2.21,0.81l-2.25,0.72c-1.5,0.46-2.99,0.99-4.51,1.4
					l-4.57,1.2c-1.51,0.44-3.08,0.7-4.63,1.03c-1.55,0.29-3.12,0.7-4.65,0.89l-4.62,0.68l-1.15,0.17c-0.49,0.05-0.82,0.07-1.23,0.11
					l-2.38,0.2c-6.33,0.45-12.74,0.3-19.04-0.78c-6.29-1.09-12.46-2.96-18.3-5.61c-5.86-2.62-11.27-6.19-16.16-10.31
					c-1.23-1.03-2.48-2.04-3.58-3.2c-1.13-1.14-2.3-2.23-3.39-3.41l-3.13-3.64l-0.78-0.91l-0.71-0.97l-1.42-1.93l-1.42-1.94
					c-0.48-0.64-0.87-1.36-1.31-2.03l-2.56-4.12l-2.18-4.13l-1.11-2.15l-0.98-2.16c-1.35-2.86-2.51-5.8-3.69-8.73
					c-1.07-2.97-2.18-5.93-3.09-8.96c-1.88-6.03-3.47-12.15-4.63-18.35c-1.19-6.19-2.06-12.44-2.68-18.7
					c-0.56-6.27-0.85-12.55-0.95-18.82l-0.04-4.71l0.05-4.72c0.01-1.58,0.08-3.12,0.12-4.67l0.03-1.17l0.02-0.58l0.01-0.29
					l0.01-0.17l0.04-0.35c0.04-0.23,0.08-0.47,0.14-0.69c0.06-0.19,0.11-0.3,0.17-0.45l0.17-0.41l0.13-0.27
					c0.19-0.39,0.29-0.64,0.43-0.94l2.02-4.36l2.36,4.1c2.33,4.05,4.56,8.16,7.03,12.12c1.23,1.98,2.38,4.02,3.67,5.96l3.79,5.88
					c1.27,1.96,2.63,3.85,3.94,5.77l1.99,2.88l2.09,2.8c1.4,1.86,2.76,3.75,4.2,5.58l4.4,5.42l1.1,1.36l1.15,1.3l2.3,2.6
					c1.54,1.73,3.03,3.49,4.71,5.15l4.9,5.07c1.6,1.52,3.29,3.19,5.04,4.67c3.48,3.03,7.13,5.86,11.01,8.36
					c3.86,2.52,7.9,4.77,12.07,6.75c4.19,1.94,8.52,3.6,12.93,5.01c4.4,1.42,8.94,2.5,13.48,3.34c2.24,0.45,4.63,0.77,6.9,1.09
					l6.97,0.76l1.74,0.19l1.75,0.12l3.5,0.25l3.5,0.25c1.17,0.08,2.34,0.08,3.51,0.13c2.34,0.06,4.68,0.18,7.02,0.18l7.03-0.05
					c2.34-0.02,4.68-0.18,7.03-0.27c1.17-0.06,2.34-0.09,3.51-0.17l3.51-0.28c2.34-0.21,4.69-0.31,7.01-0.61l7-0.76l6.99-0.94
					l1.75-0.24c0.57-0.08,1.18-0.16,1.77-0.13C644.34,714.07,645.5,714.23,646.67,714.32z"/>
				<path class="st4" d="M622.21,595.17l1.73,3.87c0.58,1.29,1.26,2.53,1.88,3.79c0.6,1.27,1.33,2.48,2,3.71
					c0.66,1.24,1.41,2.43,2.16,3.61l1.11,1.78l1.19,1.73c0.79,1.16,1.58,2.31,2.45,3.4c0.85,1.11,1.67,2.24,2.6,3.28
					c0.91,1.06,1.77,2.15,2.75,3.15c3.75,4.12,7.87,7.88,12.32,11.17c4.45,3.29,9.18,6.19,14.17,8.55c1.25,0.57,2.49,1.19,3.78,1.68
					c1.28,0.52,2.54,1.06,3.85,1.49c1.3,0.46,2.59,0.94,3.91,1.31l1.97,0.6c0.66,0.19,1.33,0.34,2,0.52l2,0.51l2.02,0.42l2.02,0.41
					l2.04,0.32c1.35,0.24,2.72,0.39,4.09,0.52c1.36,0.17,2.73,0.24,4.1,0.32c2.74,0.15,5.49,0.16,8.23,0.06
					c2.74-0.1,5.47-0.37,8.19-0.73c1.36-0.17,2.7-0.45,4.05-0.67c1.35-0.25,2.68-0.59,4.02-0.88c1.33-0.34,2.64-0.72,3.96-1.08
					l3.91-1.27l-1.51,3.23c-1.03-2.6-2-5.22-3.16-7.77l-0.84-1.92l-0.91-1.88c-0.6-1.26-1.2-2.52-1.87-3.74
					c-1.28-2.47-2.69-4.87-4.16-7.22c-0.77-1.15-1.51-2.33-2.3-3.46l-2.45-3.36l-2.6-3.23c-0.92-1.03-1.82-2.08-2.76-3.09
					c-0.98-0.97-1.92-1.98-2.93-2.93c-1.03-0.91-2.02-1.88-3.09-2.75c-2.12-1.76-4.33-3.43-6.65-4.91
					c-1.15-0.76-2.31-1.51-3.53-2.16l-1.8-1.02l-1.86-0.92c-2.47-1.25-5.05-2.28-7.66-3.21c-1.3-0.48-2.65-0.84-3.97-1.26
					c-1.34-0.37-2.69-0.7-4.04-1.05c-1.37-0.27-2.73-0.58-4.1-0.83c-1.38-0.2-2.76-0.46-4.15-0.62c-2.78-0.34-5.58-0.56-8.39-0.66
					c-5.62-0.24-11.28,0.03-16.91,0.6c-2.82,0.28-5.63,0.67-8.44,1.11l-4.21,0.7L622.21,595.17z M622.21,595.17l4.11-1.18l4.14-1.08
					c2.78-0.66,5.58-1.25,8.4-1.74c2.82-0.5,5.66-0.88,8.52-1.16c2.86-0.29,5.73-0.46,8.61-0.52c2.88-0.05,5.77,0.05,8.65,0.26
					c1.44,0.1,2.88,0.29,4.32,0.44c1.44,0.19,2.87,0.44,4.3,0.66c1.42,0.3,2.85,0.57,4.27,0.92c1.4,0.4,2.82,0.72,4.21,1.18
					c2.78,0.88,5.54,1.88,8.19,3.11l2,0.91l1.95,1.02c1.31,0.65,2.57,1.41,3.82,2.17c2.51,1.52,4.89,3.25,7.18,5.08
					c1.16,0.9,2.23,1.9,3.35,2.85c1.09,0.98,2.11,2.03,3.17,3.04c1.02,1.05,2,2.14,3,3.21c0.96,1.11,1.88,2.24,2.82,3.36
					c0.9,1.15,1.76,2.33,2.63,3.5c0.84,1.19,1.63,2.42,2.45,3.63c1.56,2.46,3.06,4.96,4.41,7.53c0.72,1.27,1.34,2.58,1.98,3.88
					l0.96,1.96l0.89,1.99c1.21,2.64,2.26,5.34,3.31,8.03l0.95,2.44l-2.46,0.79l-4.15,1.32c-1.41,0.37-2.8,0.77-4.21,1.11
					c-1.42,0.3-2.83,0.64-4.26,0.9c-1.43,0.22-2.86,0.51-4.3,0.68c-2.88,0.37-5.77,0.63-8.68,0.72c-2.9,0.09-5.81,0.06-8.7-0.17
					c-1.45-0.11-2.89-0.21-4.33-0.43c-1.44-0.17-2.88-0.36-4.3-0.64l-2.14-0.38l-2.12-0.47l-2.12-0.48l-2.09-0.58
					c-0.7-0.2-1.4-0.37-2.09-0.59l-2.06-0.68c-1.38-0.43-2.73-0.95-4.08-1.48c-1.36-0.5-2.67-1.11-3.99-1.7
					c-1.33-0.56-2.6-1.25-3.89-1.9c-2.57-1.32-5.06-2.79-7.47-4.36c-2.41-1.57-4.75-3.27-6.97-5.1c-2.23-1.82-4.36-3.75-6.39-5.78
					c-2.03-2.03-3.97-4.15-5.77-6.37c-0.94-1.08-1.76-2.26-2.62-3.4c-0.88-1.13-1.65-2.33-2.45-3.51c-0.82-1.17-1.55-2.39-2.28-3.62
					l-1.1-1.83l-1-1.89c-0.67-1.25-1.34-2.51-1.91-3.81c-0.59-1.29-1.24-2.55-1.74-3.89c-0.51-1.32-1.08-2.62-1.54-3.96
					L622.21,595.17z"/>
				<path class="st4" d="M583.37,574.34c-1.35-2.42-2.68-4.86-4.13-7.22c-0.69-1.2-1.41-2.38-2.16-3.54
					c-0.74-1.17-1.46-2.35-2.25-3.48c-1.53-2.3-3.13-4.54-4.77-6.75l-2.54-3.25l-2.66-3.14l-2.77-3.03l-2.89-2.91l-3.02-2.75
					c-1.05-0.86-2.08-1.75-3.15-2.59c-2.16-1.64-4.35-3.23-6.65-4.65c-1.16-0.7-2.3-1.42-3.5-2.03l-1.78-0.95l-1.83-0.86
					c-1.21-0.6-2.46-1.1-3.71-1.59c-1.23-0.53-2.53-0.91-3.79-1.36c-1.27-0.44-2.58-0.76-3.86-1.15c-1.3-0.33-2.62-0.63-3.92-0.92
					c-1.33-0.22-2.64-0.5-3.98-0.69c-1.34-0.15-2.66-0.39-4.01-0.47c-2.68-0.24-5.38-0.37-8.08-0.35c-1.35,0.01-2.7,0.01-4.05,0.09
					c-1.35,0.05-2.7,0.11-4.05,0.24c-1.35,0.11-2.7,0.21-4.05,0.39c-1.35,0.16-2.7,0.31-4.04,0.53c-2.69,0.39-5.37,0.89-8.04,1.44
					c-1.33,0.3-2.67,0.57-3.99,0.89l-3.98,0.99l1.68-3.38l1.66,3.76c0.54,1.26,1.19,2.47,1.77,3.71c0.58,1.24,1.25,2.44,1.9,3.64
					l0.98,1.81l1.05,1.76c1.37,2.37,2.88,4.65,4.44,6.89c0.81,1.1,1.58,2.23,2.42,3.3c0.86,1.06,1.68,2.15,2.55,3.2l2.67,3.09
					l2.81,2.97l2.95,2.83l3.08,2.68l3.21,2.52l3.34,2.36c1.15,0.73,2.27,1.5,3.44,2.2c1.19,0.67,2.34,1.39,3.56,2.02
					c2.41,1.27,4.88,2.44,7.42,3.44c1.28,0.48,2.54,1.01,3.85,1.41c1.3,0.43,2.59,0.87,3.92,1.21l1.98,0.55l2,0.45
					c0.67,0.14,1.34,0.31,2.01,0.43l2.03,0.34c2.71,0.46,5.45,0.72,8.19,0.87c2.75,0.16,5.51,0.14,8.27,0.01
					c1.38-0.07,2.75-0.22,4.14-0.33l4.12-0.53l4.1-0.73l4.07-0.94l4.04-1.11L583.37,574.34z M583.37,574.34l-3.86,1.66l-3.95,1.48
					l-4.03,1.26l-4.1,1.05c-1.38,0.28-2.76,0.59-4.16,0.83c-1.4,0.2-2.79,0.44-4.2,0.6c-2.82,0.31-5.65,0.5-8.49,0.51
					c-1.42-0.02-2.85,0-4.26-0.12c-1.42-0.09-2.84-0.16-4.26-0.36l-2.12-0.25c-0.71-0.1-1.41-0.23-2.11-0.35l-2.11-0.37l-2.09-0.47
					c-1.4-0.29-2.78-0.68-4.15-1.08c-1.39-0.37-2.73-0.87-4.08-1.33c-2.7-0.96-5.34-2.09-7.92-3.34c-1.3-0.61-2.54-1.33-3.82-1.99
					c-1.25-0.7-2.47-1.46-3.71-2.19c-1.21-0.78-2.38-1.6-3.57-2.41l-3.44-2.59l-3.31-2.76l-3.17-2.91l-3.02-3.06l-2.88-3.19
					c-0.94-1.08-1.82-2.21-2.72-3.33c-0.9-1.12-1.71-2.3-2.57-3.44c-1.65-2.34-3.25-4.71-4.7-7.17l-1.11-1.84l-1.03-1.88
					c-0.69-1.25-1.39-2.5-2.01-3.78c-1.31-2.54-2.47-5.14-3.62-7.75l-1.18-2.7l2.86-0.69l4.1-0.99c1.37-0.32,2.75-0.59,4.13-0.89
					c2.76-0.55,5.54-1.05,8.33-1.44c1.39-0.22,2.8-0.37,4.2-0.52c1.4-0.18,2.82-0.28,4.23-0.38c1.41-0.13,2.83-0.17,4.25-0.22
					c1.42-0.07,2.84-0.04,4.26-0.02c2.84,0.04,5.68,0.23,8.51,0.55c1.42,0.12,2.82,0.4,4.23,0.59c1.41,0.22,2.8,0.55,4.2,0.82
					c1.39,0.34,2.77,0.69,4.15,1.07c1.36,0.44,2.74,0.81,4.07,1.33c1.33,0.52,2.68,0.97,3.98,1.59c1.31,0.57,2.61,1.15,3.87,1.82
					l1.9,0.98l1.85,1.07c1.25,0.69,2.42,1.49,3.61,2.27c1.21,0.75,2.31,1.65,3.47,2.47c1.14,0.84,2.2,1.79,3.3,2.68
					c1.07,0.93,2.09,1.9,3.14,2.85l2.98,3l2.83,3.13l2.68,3.25l2.51,3.37l2.38,3.46c1.52,2.34,3.02,4.7,4.37,7.14
					c0.71,1.2,1.35,2.44,2,3.67c0.66,1.22,1.3,2.46,1.9,3.72C581.14,569.26,582.24,571.81,583.37,574.34z"/>
			</g>
		</g>
	</g>
</g>
</svg>
